<?xml version="1.0" encoding="utf-8" standalone="no"?>
<!DOCTYPE svg PUBLIC "-//W3C//DTD SVG 1.1//EN"
  "http://www.w3.org/Graphics/SVG/1.1/DTD/svg11.dtd">
<svg xmlns:xlink="http://www.w3.org/1999/xlink" width="864pt" height="432pt" viewBox="0 0 864 432" xmlns="http://www.w3.org/2000/svg" version="1.1">
 <metadata>
  <rdf:RDF xmlns:dc="http://purl.org/dc/elements/1.1/" xmlns:cc="http://creativecommons.org/ns#" xmlns:rdf="http://www.w3.org/1999/02/22-rdf-syntax-ns#">
   <cc:Work>
    <dc:type rdf:resource="http://purl.org/dc/dcmitype/StillImage"/>
    <dc:date>2023-05-31T15:27:51.477439</dc:date>
    <dc:format>image/svg+xml</dc:format>
    <dc:creator>
     <cc:Agent>
      <dc:title>Matplotlib v3.7.0, https://matplotlib.org/</dc:title>
     </cc:Agent>
    </dc:creator>
   </cc:Work>
  </rdf:RDF>
 </metadata>
 <defs>
  <style type="text/css">*{stroke-linejoin: round; stroke-linecap: butt}</style>
 </defs>
 <g id="figure_1">
  <g id="patch_1">
   <path d="M 0 432 
L 864 432 
L 864 0 
L 0 0 
z
" style="fill: #ffffff"/>
  </g>
  <g id="axes_1">
   <g id="patch_2">
    <path d="M 108 384.48 
L 777.6 384.48 
L 777.6 51.84 
L 108 51.84 
z
" style="fill: #eaeaf2"/>
   </g>
   <g id="matplotlib.axis_1">
    <g id="xtick_1">
     <g id="line2d_1">
      <path d="M 134.826129 384.48 
L 134.826129 51.84 
" clip-path="url(#pe3b7f19948)" style="fill: none; stroke: #ffffff; stroke-width: 0.8; stroke-linecap: round"/>
     </g>
     <g id="text_1">
      <!-- 0 -->
      <g style="fill: #262626" transform="translate(131.644879 399.078438) scale(0.1 -0.1)">
       <defs>
        <path id="DejaVuSans-30" d="M 2034 4250 
Q 1547 4250 1301 3770 
Q 1056 3291 1056 2328 
Q 1056 1369 1301 889 
Q 1547 409 2034 409 
Q 2525 409 2770 889 
Q 3016 1369 3016 2328 
Q 3016 3291 2770 3770 
Q 2525 4250 2034 4250 
z
M 2034 4750 
Q 2819 4750 3233 4129 
Q 3647 3509 3647 2328 
Q 3647 1150 3233 529 
Q 2819 -91 2034 -91 
Q 1250 -91 836 529 
Q 422 1150 422 2328 
Q 422 3509 836 4129 
Q 1250 4750 2034 4750 
z
" transform="scale(0.015625)"/>
       </defs>
       <use xlink:href="#DejaVuSans-30"/>
      </g>
     </g>
    </g>
    <g id="xtick_2">
     <g id="line2d_2">
      <path d="M 214.67775 384.48 
L 214.67775 51.84 
" clip-path="url(#pe3b7f19948)" style="fill: none; stroke: #ffffff; stroke-width: 0.8; stroke-linecap: round"/>
     </g>
     <g id="text_2">
      <!-- 2 -->
      <g style="fill: #262626" transform="translate(211.4965 399.078438) scale(0.1 -0.1)">
       <defs>
        <path id="DejaVuSans-32" d="M 1228 531 
L 3431 531 
L 3431 0 
L 469 0 
L 469 531 
Q 828 903 1448 1529 
Q 2069 2156 2228 2338 
Q 2531 2678 2651 2914 
Q 2772 3150 2772 3378 
Q 2772 3750 2511 3984 
Q 2250 4219 1831 4219 
Q 1534 4219 1204 4116 
Q 875 4013 500 3803 
L 500 4441 
Q 881 4594 1212 4672 
Q 1544 4750 1819 4750 
Q 2544 4750 2975 4387 
Q 3406 4025 3406 3419 
Q 3406 3131 3298 2873 
Q 3191 2616 2906 2266 
Q 2828 2175 2409 1742 
Q 1991 1309 1228 531 
z
" transform="scale(0.015625)"/>
       </defs>
       <use xlink:href="#DejaVuSans-32"/>
      </g>
     </g>
    </g>
    <g id="xtick_3">
     <g id="line2d_3">
      <path d="M 294.529371 384.48 
L 294.529371 51.84 
" clip-path="url(#pe3b7f19948)" style="fill: none; stroke: #ffffff; stroke-width: 0.8; stroke-linecap: round"/>
     </g>
     <g id="text_3">
      <!-- 4 -->
      <g style="fill: #262626" transform="translate(291.348121 399.078438) scale(0.1 -0.1)">
       <defs>
        <path id="DejaVuSans-34" d="M 2419 4116 
L 825 1625 
L 2419 1625 
L 2419 4116 
z
M 2253 4666 
L 3047 4666 
L 3047 1625 
L 3713 1625 
L 3713 1100 
L 3047 1100 
L 3047 0 
L 2419 0 
L 2419 1100 
L 313 1100 
L 313 1709 
L 2253 4666 
z
" transform="scale(0.015625)"/>
       </defs>
       <use xlink:href="#DejaVuSans-34"/>
      </g>
     </g>
    </g>
    <g id="xtick_4">
     <g id="line2d_4">
      <path d="M 374.380992 384.48 
L 374.380992 51.84 
" clip-path="url(#pe3b7f19948)" style="fill: none; stroke: #ffffff; stroke-width: 0.8; stroke-linecap: round"/>
     </g>
     <g id="text_4">
      <!-- 6 -->
      <g style="fill: #262626" transform="translate(371.199742 399.078438) scale(0.1 -0.1)">
       <defs>
        <path id="DejaVuSans-36" d="M 2113 2584 
Q 1688 2584 1439 2293 
Q 1191 2003 1191 1497 
Q 1191 994 1439 701 
Q 1688 409 2113 409 
Q 2538 409 2786 701 
Q 3034 994 3034 1497 
Q 3034 2003 2786 2293 
Q 2538 2584 2113 2584 
z
M 3366 4563 
L 3366 3988 
Q 3128 4100 2886 4159 
Q 2644 4219 2406 4219 
Q 1781 4219 1451 3797 
Q 1122 3375 1075 2522 
Q 1259 2794 1537 2939 
Q 1816 3084 2150 3084 
Q 2853 3084 3261 2657 
Q 3669 2231 3669 1497 
Q 3669 778 3244 343 
Q 2819 -91 2113 -91 
Q 1303 -91 875 529 
Q 447 1150 447 2328 
Q 447 3434 972 4092 
Q 1497 4750 2381 4750 
Q 2619 4750 2861 4703 
Q 3103 4656 3366 4563 
z
" transform="scale(0.015625)"/>
       </defs>
       <use xlink:href="#DejaVuSans-36"/>
      </g>
     </g>
    </g>
    <g id="xtick_5">
     <g id="line2d_5">
      <path d="M 454.232614 384.48 
L 454.232614 51.84 
" clip-path="url(#pe3b7f19948)" style="fill: none; stroke: #ffffff; stroke-width: 0.8; stroke-linecap: round"/>
     </g>
     <g id="text_5">
      <!-- 8 -->
      <g style="fill: #262626" transform="translate(451.051364 399.078438) scale(0.1 -0.1)">
       <defs>
        <path id="DejaVuSans-38" d="M 2034 2216 
Q 1584 2216 1326 1975 
Q 1069 1734 1069 1313 
Q 1069 891 1326 650 
Q 1584 409 2034 409 
Q 2484 409 2743 651 
Q 3003 894 3003 1313 
Q 3003 1734 2745 1975 
Q 2488 2216 2034 2216 
z
M 1403 2484 
Q 997 2584 770 2862 
Q 544 3141 544 3541 
Q 544 4100 942 4425 
Q 1341 4750 2034 4750 
Q 2731 4750 3128 4425 
Q 3525 4100 3525 3541 
Q 3525 3141 3298 2862 
Q 3072 2584 2669 2484 
Q 3125 2378 3379 2068 
Q 3634 1759 3634 1313 
Q 3634 634 3220 271 
Q 2806 -91 2034 -91 
Q 1263 -91 848 271 
Q 434 634 434 1313 
Q 434 1759 690 2068 
Q 947 2378 1403 2484 
z
M 1172 3481 
Q 1172 3119 1398 2916 
Q 1625 2713 2034 2713 
Q 2441 2713 2670 2916 
Q 2900 3119 2900 3481 
Q 2900 3844 2670 4047 
Q 2441 4250 2034 4250 
Q 1625 4250 1398 4047 
Q 1172 3844 1172 3481 
z
" transform="scale(0.015625)"/>
       </defs>
       <use xlink:href="#DejaVuSans-38"/>
      </g>
     </g>
    </g>
    <g id="xtick_6">
     <g id="line2d_6">
      <path d="M 534.084235 384.48 
L 534.084235 51.84 
" clip-path="url(#pe3b7f19948)" style="fill: none; stroke: #ffffff; stroke-width: 0.8; stroke-linecap: round"/>
     </g>
     <g id="text_6">
      <!-- 10 -->
      <g style="fill: #262626" transform="translate(527.721735 399.078438) scale(0.1 -0.1)">
       <defs>
        <path id="DejaVuSans-31" d="M 794 531 
L 1825 531 
L 1825 4091 
L 703 3866 
L 703 4441 
L 1819 4666 
L 2450 4666 
L 2450 531 
L 3481 531 
L 3481 0 
L 794 0 
L 794 531 
z
" transform="scale(0.015625)"/>
       </defs>
       <use xlink:href="#DejaVuSans-31"/>
       <use xlink:href="#DejaVuSans-30" x="63.623047"/>
      </g>
     </g>
    </g>
    <g id="xtick_7">
     <g id="line2d_7">
      <path d="M 613.935856 384.48 
L 613.935856 51.84 
" clip-path="url(#pe3b7f19948)" style="fill: none; stroke: #ffffff; stroke-width: 0.8; stroke-linecap: round"/>
     </g>
     <g id="text_7">
      <!-- 12 -->
      <g style="fill: #262626" transform="translate(607.573356 399.078438) scale(0.1 -0.1)">
       <use xlink:href="#DejaVuSans-31"/>
       <use xlink:href="#DejaVuSans-32" x="63.623047"/>
      </g>
     </g>
    </g>
    <g id="xtick_8">
     <g id="line2d_8">
      <path d="M 693.787477 384.48 
L 693.787477 51.84 
" clip-path="url(#pe3b7f19948)" style="fill: none; stroke: #ffffff; stroke-width: 0.8; stroke-linecap: round"/>
     </g>
     <g id="text_8">
      <!-- 14 -->
      <g style="fill: #262626" transform="translate(687.424977 399.078438) scale(0.1 -0.1)">
       <use xlink:href="#DejaVuSans-31"/>
       <use xlink:href="#DejaVuSans-34" x="63.623047"/>
      </g>
     </g>
    </g>
    <g id="xtick_9">
     <g id="line2d_9">
      <path d="M 773.639098 384.48 
L 773.639098 51.84 
" clip-path="url(#pe3b7f19948)" style="fill: none; stroke: #ffffff; stroke-width: 0.8; stroke-linecap: round"/>
     </g>
     <g id="text_9">
      <!-- 16 -->
      <g style="fill: #262626" transform="translate(767.276598 399.078438) scale(0.1 -0.1)">
       <use xlink:href="#DejaVuSans-31"/>
       <use xlink:href="#DejaVuSans-36" x="63.623047"/>
      </g>
     </g>
    </g>
    <g id="text_10">
     <!-- R bpp -->
     <g style="fill: #262626" transform="translate(428.214063 412.756563) scale(0.1 -0.1)">
      <defs>
       <path id="DejaVuSans-52" d="M 2841 2188 
Q 3044 2119 3236 1894 
Q 3428 1669 3622 1275 
L 4263 0 
L 3584 0 
L 2988 1197 
Q 2756 1666 2539 1819 
Q 2322 1972 1947 1972 
L 1259 1972 
L 1259 0 
L 628 0 
L 628 4666 
L 2053 4666 
Q 2853 4666 3247 4331 
Q 3641 3997 3641 3322 
Q 3641 2881 3436 2590 
Q 3231 2300 2841 2188 
z
M 1259 4147 
L 1259 2491 
L 2053 2491 
Q 2509 2491 2742 2702 
Q 2975 2913 2975 3322 
Q 2975 3731 2742 3939 
Q 2509 4147 2053 4147 
L 1259 4147 
z
" transform="scale(0.015625)"/>
       <path id="DejaVuSans-20" transform="scale(0.015625)"/>
       <path id="DejaVuSans-62" d="M 3116 1747 
Q 3116 2381 2855 2742 
Q 2594 3103 2138 3103 
Q 1681 3103 1420 2742 
Q 1159 2381 1159 1747 
Q 1159 1113 1420 752 
Q 1681 391 2138 391 
Q 2594 391 2855 752 
Q 3116 1113 3116 1747 
z
M 1159 2969 
Q 1341 3281 1617 3432 
Q 1894 3584 2278 3584 
Q 2916 3584 3314 3078 
Q 3713 2572 3713 1747 
Q 3713 922 3314 415 
Q 2916 -91 2278 -91 
Q 1894 -91 1617 61 
Q 1341 213 1159 525 
L 1159 0 
L 581 0 
L 581 4863 
L 1159 4863 
L 1159 2969 
z
" transform="scale(0.015625)"/>
       <path id="DejaVuSans-70" d="M 1159 525 
L 1159 -1331 
L 581 -1331 
L 581 3500 
L 1159 3500 
L 1159 2969 
Q 1341 3281 1617 3432 
Q 1894 3584 2278 3584 
Q 2916 3584 3314 3078 
Q 3713 2572 3713 1747 
Q 3713 922 3314 415 
Q 2916 -91 2278 -91 
Q 1894 -91 1617 61 
Q 1341 213 1159 525 
z
M 3116 1747 
Q 3116 2381 2855 2742 
Q 2594 3103 2138 3103 
Q 1681 3103 1420 2742 
Q 1159 2381 1159 1747 
Q 1159 1113 1420 752 
Q 1681 391 2138 391 
Q 2594 391 2855 752 
Q 3116 1113 3116 1747 
z
" transform="scale(0.015625)"/>
      </defs>
      <use xlink:href="#DejaVuSans-52"/>
      <use xlink:href="#DejaVuSans-20" x="69.482422"/>
      <use xlink:href="#DejaVuSans-62" x="101.269531"/>
      <use xlink:href="#DejaVuSans-70" x="164.746094"/>
      <use xlink:href="#DejaVuSans-70" x="228.222656"/>
     </g>
    </g>
   </g>
   <g id="matplotlib.axis_2">
    <g id="ytick_1">
     <g id="line2d_10">
      <path d="M 108 362.979174 
L 777.6 362.979174 
" clip-path="url(#pe3b7f19948)" style="fill: none; stroke: #ffffff; stroke-width: 0.8; stroke-linecap: round"/>
     </g>
     <g id="text_11">
      <!-- 20 -->
      <g style="fill: #262626" transform="translate(88.275 366.778393) scale(0.1 -0.1)">
       <use xlink:href="#DejaVuSans-32"/>
       <use xlink:href="#DejaVuSans-30" x="63.623047"/>
      </g>
     </g>
    </g>
    <g id="ytick_2">
     <g id="line2d_11">
      <path d="M 108 300.351766 
L 777.6 300.351766 
" clip-path="url(#pe3b7f19948)" style="fill: none; stroke: #ffffff; stroke-width: 0.8; stroke-linecap: round"/>
     </g>
     <g id="text_12">
      <!-- 40 -->
      <g style="fill: #262626" transform="translate(88.275 304.150985) scale(0.1 -0.1)">
       <use xlink:href="#DejaVuSans-34"/>
       <use xlink:href="#DejaVuSans-30" x="63.623047"/>
      </g>
     </g>
    </g>
    <g id="ytick_3">
     <g id="line2d_12">
      <path d="M 108 237.724358 
L 777.6 237.724358 
" clip-path="url(#pe3b7f19948)" style="fill: none; stroke: #ffffff; stroke-width: 0.8; stroke-linecap: round"/>
     </g>
     <g id="text_13">
      <!-- 60 -->
      <g style="fill: #262626" transform="translate(88.275 241.523577) scale(0.1 -0.1)">
       <use xlink:href="#DejaVuSans-36"/>
       <use xlink:href="#DejaVuSans-30" x="63.623047"/>
      </g>
     </g>
    </g>
    <g id="ytick_4">
     <g id="line2d_13">
      <path d="M 108 175.09695 
L 777.6 175.09695 
" clip-path="url(#pe3b7f19948)" style="fill: none; stroke: #ffffff; stroke-width: 0.8; stroke-linecap: round"/>
     </g>
     <g id="text_14">
      <!-- 80 -->
      <g style="fill: #262626" transform="translate(88.275 178.896169) scale(0.1 -0.1)">
       <use xlink:href="#DejaVuSans-38"/>
       <use xlink:href="#DejaVuSans-30" x="63.623047"/>
      </g>
     </g>
    </g>
    <g id="ytick_5">
     <g id="line2d_14">
      <path d="M 108 112.469542 
L 777.6 112.469542 
" clip-path="url(#pe3b7f19948)" style="fill: none; stroke: #ffffff; stroke-width: 0.8; stroke-linecap: round"/>
     </g>
     <g id="text_15">
      <!-- 100 -->
      <g style="fill: #262626" transform="translate(81.9125 116.268761) scale(0.1 -0.1)">
       <use xlink:href="#DejaVuSans-31"/>
       <use xlink:href="#DejaVuSans-30" x="63.623047"/>
       <use xlink:href="#DejaVuSans-30" x="127.246094"/>
      </g>
     </g>
    </g>
    <g id="text_16">
     <!-- D psnr -->
     <g style="fill: #262626" transform="translate(75.832812 234.602187) rotate(-90) scale(0.1 -0.1)">
      <defs>
       <path id="DejaVuSans-44" d="M 1259 4147 
L 1259 519 
L 2022 519 
Q 2988 519 3436 956 
Q 3884 1394 3884 2338 
Q 3884 3275 3436 3711 
Q 2988 4147 2022 4147 
L 1259 4147 
z
M 628 4666 
L 1925 4666 
Q 3281 4666 3915 4102 
Q 4550 3538 4550 2338 
Q 4550 1131 3912 565 
Q 3275 0 1925 0 
L 628 0 
L 628 4666 
z
" transform="scale(0.015625)"/>
       <path id="DejaVuSans-73" d="M 2834 3397 
L 2834 2853 
Q 2591 2978 2328 3040 
Q 2066 3103 1784 3103 
Q 1356 3103 1142 2972 
Q 928 2841 928 2578 
Q 928 2378 1081 2264 
Q 1234 2150 1697 2047 
L 1894 2003 
Q 2506 1872 2764 1633 
Q 3022 1394 3022 966 
Q 3022 478 2636 193 
Q 2250 -91 1575 -91 
Q 1294 -91 989 -36 
Q 684 19 347 128 
L 347 722 
Q 666 556 975 473 
Q 1284 391 1588 391 
Q 1994 391 2212 530 
Q 2431 669 2431 922 
Q 2431 1156 2273 1281 
Q 2116 1406 1581 1522 
L 1381 1569 
Q 847 1681 609 1914 
Q 372 2147 372 2553 
Q 372 3047 722 3315 
Q 1072 3584 1716 3584 
Q 2034 3584 2315 3537 
Q 2597 3491 2834 3397 
z
" transform="scale(0.015625)"/>
       <path id="DejaVuSans-6e" d="M 3513 2113 
L 3513 0 
L 2938 0 
L 2938 2094 
Q 2938 2591 2744 2837 
Q 2550 3084 2163 3084 
Q 1697 3084 1428 2787 
Q 1159 2491 1159 1978 
L 1159 0 
L 581 0 
L 581 3500 
L 1159 3500 
L 1159 2956 
Q 1366 3272 1645 3428 
Q 1925 3584 2291 3584 
Q 2894 3584 3203 3211 
Q 3513 2838 3513 2113 
z
" transform="scale(0.015625)"/>
       <path id="DejaVuSans-72" d="M 2631 2963 
Q 2534 3019 2420 3045 
Q 2306 3072 2169 3072 
Q 1681 3072 1420 2755 
Q 1159 2438 1159 1844 
L 1159 0 
L 581 0 
L 581 3500 
L 1159 3500 
L 1159 2956 
Q 1341 3275 1631 3429 
Q 1922 3584 2338 3584 
Q 2397 3584 2469 3576 
Q 2541 3569 2628 3553 
L 2631 2963 
z
" transform="scale(0.015625)"/>
      </defs>
      <use xlink:href="#DejaVuSans-44"/>
      <use xlink:href="#DejaVuSans-20" x="77.001953"/>
      <use xlink:href="#DejaVuSans-70" x="108.789062"/>
      <use xlink:href="#DejaVuSans-73" x="172.265625"/>
      <use xlink:href="#DejaVuSans-6e" x="224.365234"/>
      <use xlink:href="#DejaVuSans-72" x="287.744141"/>
     </g>
    </g>
   </g>
   <g id="PolyCollection_1"/>
   <g id="PolyCollection_2"/>
   <g id="PolyCollection_3"/>
   <g id="PolyCollection_4"/>
   <g id="PolyCollection_5"/>
   <g id="line2d_15">
    <path d="M 138.436364 368.084762 
L 139.208854 366.024168 
L 140.094659 361.781746 
L 141.009707 358.897751 
L 142.051472 355.383459 
L 143.261382 353.415251 
L 144.555365 349.621129 
L 146.021147 347.234685 
L 147.536885 345.526988 
L 149.334082 341.973801 
L 151.251906 339.894149 
L 153.465809 336.918005 
L 155.941677 334.714983 
L 158.722155 332.202878 
L 161.953456 329.377318 
L 166.03279 327.112756 
L 170.064604 324.514087 
L 175.346538 322.239925 
L 181.040303 319.536277 
L 187.656427 316.849538 
L 193.970378 313.885634 
L 201.140892 310.794603 
L 208.91697 308.439564 
L 216.434739 305.766078 
L 223.577229 302.443427 
L 232.168442 300.130841 
L 239.323116 296.790596 
L 244.970581 293.675722 
L 250.273228 290.953983 
L 256.28257 287.522251 
L 262.500264 284.273551 
L 269.389318 281.065838 
L 275.868977 278.121192 
L 281.01079 274.9043 
L 286.953117 271.815206 
L 293.027036 268.977313 
L 298.44909 265.479753 
L 304.710648 262.197879 
L 310.430001 259.77043 
L 316.191999 255.739816 
L 322.960428 252.873666 
L 328.810154 250.124544 
L 335.850294 246.817883 
L 341.808461 243.492178 
L 348.78037 240.490833 
L 354.912773 236.805974 
L 361.545955 233.60241 
L 367.783145 230.477928 
L 373.629215 227.456612 
L 379.681202 224.627314 
L 387.358587 221.279791 
L 394.317092 217.913626 
L 401.198836 214.945211 
L 407.046125 211.547081 
L 413.439274 208.472011 
L 419.056278 205.982121 
L 426.240195 202.387914 
L 433.121939 199.213392 
L 440.828566 196.261345 
L 446.951222 192.564623 
L 453.296852 189.46761 
L 459.114899 185.943686 
L 465.75661 183.648391 
L 473.01607 180.244997 
L 480.599634 176.941836 
L 486.722291 173.783004 
L 492.910743 170.684396 
L 498.734881 167.999434 
L 505.212103 164.195255 
L 512.443539 160.942053 
L 519.984458 158.308664 
L 525.889014 154.856342 
L 532.289474 151.316628 
L 538.184282 148.826479 
L 544.930779 145.423115 
L 551.825926 142.033365 
L 559.413146 138.869238 
L 565.398118 136.249959 
L 571.682827 133.019996 
L 578.084506 129.595042 
L 584.308292 126.106536 
L 591.170541 122.959259 
L 598.788222 119.8334 
L 604.812184 116.820345 
L 611.358857 113.527582 
L 617.477858 111.065678 
L 623.699208 107.009683 
L 630.657713 104.063285 
L 638.456942 101.285144 
L 644.260367 97.85891 
L 650.737589 94.931447 
L 656.835876 91.922715 
L 663.549475 88.446758 
L 670.587179 85.098644 
L 677.816178 82.030482 
L 683.651283 78.724142 
L 690.201611 75.884711 
L 696.351073 72.506038 
L 702.926988 69.786037 
L 709.947634 66.96 
" clip-path="url(#pe3b7f19948)" style="fill: none; stroke: #1f77b4; stroke-width: 1.5; stroke-linecap: round"/>
   </g>
   <g id="line2d_16">
    <path d="M 139.727909 364.758845 
L 140.577161 366.574562 
L 141.698125 364.252575 
L 142.919001 357.501606 
L 144.407933 356.206557 
L 145.789643 354.800521 
L 147.298071 350.670223 
L 148.9454 348.568338 
L 150.775496 345.627406 
L 152.666513 343.069323 
L 154.796345 340.924193 
L 156.91521 337.207616 
L 159.127895 334.290131 
L 161.658593 332.146307 
L 164.38546 328.950903 
L 167.479077 326.212018 
L 170.735964 324.044143 
L 174.528965 321.355696 
L 178.524227 318.155033 
L 183.023922 315.87013 
L 187.662519 312.987406 
L 192.889623 310.612736 
L 198.734475 307.790211 
L 204.853476 304.269948 
L 210.644717 302.254864 
L 218.004089 299.595182 
L 224.827347 296.173902 
L 231.796819 293.430389 
L 239.239044 290.70401 
L 246.722697 287.432528 
L 252.926988 284.069742 
L 260.48131 280.700299 
L 267.249739 277.998591 
L 272.856996 275.473193 
L 279.607148 271.871772 
L 285.638421 268.874818 
L 290.567007 265.705875 
L 298.283382 262.421338 
L 304.387761 259.240363 
L 310.449496 256.284424 
L 317.243512 253.025267 
L 323.065214 249.671106 
L 329.287782 246.336066 
L 335.342205 243.402312 
L 342.439613 240.55705 
L 347.825113 237.599732 
L 354.750721 234.05337 
L 361.556921 230.775901 
L 367.111785 227.806 
L 374.35906 224.557578 
L 382.015731 221.784856 
L 387.68391 218.383139 
L 393.538509 214.804608 
L 399.733054 212.006796 
L 407.016882 208.369056 
L 413.213863 205.757141 
L 420.18699 202.641845 
L 426.686144 199.252544 
L 433.190171 195.952366 
L 439.934231 192.860162 
L 446.794043 189.691349 
L 453.367522 186.110006 
L 459.94953 183.420812 
L 466.554688 180.450279 
L 472.910066 177.04783 
L 479.364137 173.712249 
L 486.473729 170.753872 
L 492.844947 167.192233 
L 498.754376 164.561982 
L 505.312015 161.057852 
L 512.190104 158.104428 
L 518.661233 154.909824 
L 525.714777 151.589952 
L 532.428376 148.638558 
L 538.494984 145.381171 
L 544.589616 141.953379 
L 551.485981 138.764631 
L 557.959548 135.726573 
L 564.972883 133.165161 
L 571.827821 129.452501 
L 577.704353 126.592973 
L 583.847722 123.157846 
L 590.750179 120.267377 
L 597.187193 116.87357 
L 604.513667 113.39086 
L 611.081053 110.858069 
L 616.928342 107.001109 
L 623.472578 104.335217 
L 630.188614 100.912184 
L 636.470886 97.957511 
L 643.764462 94.698711 
L 650.301388 92.009219 
L 656.594625 88.626928 
L 663.220497 85.616932 
L 669.416259 82.236909 
L 675.705842 78.448676 
L 683.061558 75.715456 
L 689.581426 73.013828 
L 695.808868 69.837486 
L 702.44936 67.062655 
" clip-path="url(#pe3b7f19948)" style="fill: none; stroke: #ff7f0e; stroke-width: 1.5; stroke-linecap: round"/>
   </g>
   <g id="line2d_17">
    <path d="M 143.541623 368.795542 
L 144.959886 366.931704 
L 146.414702 362.745334 
L 147.970649 359.571504 
L 149.541217 358.000325 
L 151.415176 354.840439 
L 153.445096 351.687122 
L 155.617573 349.087248 
L 157.872903 346.679202 
L 160.315874 343.732493 
L 162.810018 340.974464 
L 165.590496 338.238548 
L 168.496473 336.187444 
L 171.731429 332.952119 
L 175.223475 330.189638 
L 179.235795 327.441335 
L 183.3066 324.784958 
L 188.241278 321.643551 
L 193.37578 319.279846 
L 199.313234 316.521422 
L 205.120314 314.029875 
L 211.487877 310.604273 
L 218.660827 308.117403 
L 225.659541 305.385616 
L 232.258607 302.473946 
L 240.35879 299.55504 
L 247.515901 296.278804 
L 254.699817 293.566812 
L 261.716808 290.155968 
L 268.1392 287.86019 
L 273.209125 284.026183 
L 279.446314 281.118913 
L 285.520233 278.522746 
L 291.117742 274.863986 
L 297.799662 271.746809 
L 303.938157 269.03911 
L 309.775699 265.745866 
L 316.347959 262.387128 
L 322.393854 259.576229 
L 328.270385 256.297629 
L 335.157003 253.017229 
L 341.690273 250.05819 
L 347.973763 246.595158 
L 353.856387 243.51294 
L 360.042402 239.948851 
L 366.000569 237.175051 
L 372.843322 234.349108 
L 380.404955 231.042888 
L 386.309511 227.776685 
L 392.511365 224.702064 
L 399.464997 221.538462 
L 405.978772 218.286577 
L 412.187937 214.82024 
L 419.118419 211.969469 
L 426.214608 208.098614 
L 432.09845 205.940058 
L 438.679239 202.093917 
L 445.169864 199.316494 
L 452.134462 196.210571 
L 458.757896 192.688836 
L 465.761484 189.554841 
L 472.193624 185.724476 
L 478.483206 183.434347 
L 485.171218 179.652763 
L 492.346605 177.006196 
L 498.544805 173.787167 
L 505.552048 170.74167 
L 511.647898 167.382671 
L 517.922859 164.770043 
L 524.482935 161.035127 
L 531.776511 158.168494 
L 537.628674 154.872938 
L 544.930779 151.97149 
L 551.213051 148.848759 
L 557.764598 145.932248 
L 564.145563 142.647162 
L 571.222257 139.108497 
L 577.092696 136.297483 
L 584.338753 132.892572 
L 591.042605 129.631866 
L 597.162824 126.571268 
L 603.57425 122.826785 
L 610.62292 120.206734 
L 616.488486 116.92087 
L 624.074487 113.900013 
L 630.470074 110.639125 
L 636.580546 107.595253 
L 643.323387 104.51588 
L 650.270927 101.209034 
L 655.926921 97.575614 
L 663.501956 95.037887 
L 669.864645 91.546296 
L 676.391823 88.361812 
L 683.17731 85.106769 
L 689.670372 82.623787 
L 695.321492 78.680252 
L 702.959886 75.675819 
L 709.390808 72.848533 
L 715.786394 69.653698 
L 722.549949 66.964351 
" clip-path="url(#pe3b7f19948)" style="fill: none; stroke: #2ca02c; stroke-width: 1.5; stroke-linecap: round"/>
   </g>
   <g id="line2d_18">
    <path d="M 144.259284 368.41453 
L 145.974846 365.928025 
L 147.992581 363.274775 
L 150.188208 360.708454 
L 152.594625 358.239809 
L 155.085115 355.494223 
L 157.864374 353.120968 
L 160.881229 350.191851 
L 164.124714 348.080881 
L 167.368199 344.58716 
L 170.932133 342.540039 
L 174.667867 339.516969 
L 178.563217 336.887313 
L 182.631585 334.919283 
L 186.974101 332.005397 
L 191.914872 329.33961 
L 196.798375 326.185182 
L 202.576213 323.299958 
L 208.658661 320.591509 
L 215.324741 317.841401 
L 221.951831 314.613375 
L 229.201543 311.915027 
L 237.01783 308.9127 
L 244.914533 306.328353 
L 252.394531 303.04837 
L 260.608028 299.507324 
L 267.04626 297.443379 
L 273.397983 293.840481 
L 279.796006 290.925894 
L 286.060001 287.458813 
L 291.585622 284.795177 
L 297.922724 281.390136 
L 304.474271 278.367791 
L 310.554281 275.181273 
L 315.891044 272.214613 
L 321.692033 268.689756 
L 327.463779 266.141619 
L 334.135951 262.011267 
L 340.85686 259.298531 
L 347.410844 255.91383 
L 354.013565 252.754406 
L 360.022907 249.810298 
L 366.090733 246.602902 
L 372.578921 242.884607 
L 379.861531 240.351946 
L 386.16939 237.635793 
L 392.61737 233.479563 
L 398.735152 230.778133 
L 404.951628 227.508075 
L 411.645732 224.437087 
L 419.131822 221.300254 
L 425.835673 217.919102 
L 432.261721 215.074093 
L 438.442862 211.76074 
L 445.135748 208.670388 
L 451.431422 205.962132 
L 458.802978 202.313591 
L 465.594558 199.343723 
L 471.973086 196.744029 
L 478.66719 192.625277 
L 485.266256 189.574901 
L 491.599702 186.737118 
L 498.446111 182.931953 
L 504.891654 180.080322 
L 512.137711 176.632389 
L 518.399269 173.60551 
L 525.260299 170.745979 
L 531.374426 167.476404 
L 538.207432 165.09498 
L 544.604237 161.136667 
L 551.828363 158.068783 
L 558.279997 155.271469 
L 564.916835 151.75209 
L 571.217383 148.675608 
L 578.216097 145.711246 
L 584.443539 142.553151 
L 591.54582 139.022472 
L 598.109551 136.040577 
L 604.614797 132.599462 
L 611.36495 129.384231 
L 617.855574 126.645765 
L 624.208516 123.184914 
L 631.225506 120.338671 
L 637.790456 117.017625 
L 644.613714 113.812902 
L 651.059257 110.746774 
L 657.538916 107.413375 
L 663.999079 104.262274 
L 671.162283 101.037607 
L 677.521316 97.922597 
L 684.306803 95.028448 
L 690.718229 91.730836 
L 697.439139 88.83931 
L 703.954133 85.147141 
L 710.838313 82.292209 
L 717.191254 78.66388 
L 724.111988 75.58109 
L 730.549002 72.647044 
L 737.116388 69.508975 
L 743.621634 67.142032 
" clip-path="url(#pe3b7f19948)" style="fill: none; stroke: #d62728; stroke-width: 1.5; stroke-linecap: round"/>
   </g>
   <g id="line2d_19">
    <path d="M 141.225371 369.36 
L 142.753293 366.741147 
L 144.366506 365.135363 
L 146.219752 362.848819 
L 148.427564 358.730709 
L 150.802301 356.499367 
L 153.630299 353.366997 
L 156.792148 350.973904 
L 160.54494 349.162505 
L 164.613308 346.606201 
L 169.36522 343.607747 
L 174.5643 340.70773 
L 180.070426 337.910877 
L 185.676464 335.588237 
L 191.57249 332.162779 
L 198.078955 330.036483 
L 203.942084 326.832142 
L 210.513125 324.438875 
L 216.981818 320.847314 
L 223.745373 318.492982 
L 229.687701 315.430101 
L 235.65196 312.321121 
L 241.822135 309.327967 
L 248.160455 305.9679 
L 255.117742 303.502783 
L 261.83987 300.163704 
L 267.477587 297.530139 
L 273.408949 293.855913 
L 279.521857 290.68811 
L 285.895512 287.887241 
L 292.400758 284.311915 
L 298.968145 281.509425 
L 304.709429 278.25597 
L 310.822338 275.011006 
L 317.339768 271.790444 
L 324.099668 268.364605 
L 330.200393 265.478663 
L 336.639843 262.049771 
L 343.385122 259.016834 
L 349.636932 255.677068 
L 356.080038 252.622699 
L 362.033331 249.858419 
L 368.416733 246.62013 
L 374.573506 243.43499 
L 381.302945 240.339085 
L 388.101834 237.594896 
L 395.128572 234.031474 
L 401.256102 230.864761 
L 407.358045 227.837698 
L 414.219075 224.879434 
L 421.074013 221.069151 
L 427.854627 217.836435 
L 434.63524 214.725831 
L 441.047885 211.956161 
L 447.61649 208.288253 
L 453.763515 205.744887 
L 460.608705 202.808213 
L 467.69271 199.032758 
L 474.558614 195.572779 
L 481.558546 193.31995 
L 487.58129 189.976075 
L 493.879402 186.525867 
L 500.776985 183.352972 
L 507.847587 180.165102 
L 514.868233 177.176969 
L 521.288188 173.787847 
L 527.622853 170.642903 
L 533.785717 167.566844 
L 540.427428 164.933482 
L 547.281148 160.930497 
L 554.670981 157.673855 
L 561.18963 154.742908 
L 567.446314 151.799579 
L 573.840682 148.432239 
L 580.611548 145.729908 
L 587.136289 142.096668 
L 594.517593 139.063215 
L 601.268964 135.997588 
L 607.286834 133.071433 
L 614.169796 129.139689 
L 620.409423 125.910851 
L 627.053571 122.83489 
L 634.332526 120.177765 
L 641.094862 116.785746 
L 647.378352 113.949599 
L 654.039559 110.647338 
L 660.262127 107.17099 
L 667.024464 104.296232 
L 674.34119 100.770836 
L 680.987775 98.123806 
L 687.216435 94.295196 
L 693.833778 91.79996 
L 700.498639 88.400347 
L 707.354796 85.631878 
L 714.154904 82.120379 
L 720.825858 78.40217 
L 727.142246 75.850882 
L 733.791268 72.592752 
L 740.296514 69.463822 
L 747.163636 67.291117 
" clip-path="url(#pe3b7f19948)" style="fill: none; stroke: #9467bd; stroke-width: 1.5; stroke-linecap: round"/>
   </g>
   <g id="line2d_20"/>
   <g id="line2d_21"/>
   <g id="line2d_22"/>
   <g id="line2d_23"/>
   <g id="line2d_24"/>
   <g id="patch_3">
    <path d="M 108 384.48 
L 108 51.84 
" style="fill: none; stroke: #ffffff; stroke-width: 0.8; stroke-linejoin: miter; stroke-linecap: square"/>
   </g>
   <g id="patch_4">
    <path d="M 777.6 384.48 
L 777.6 51.84 
" style="fill: none; stroke: #ffffff; stroke-width: 0.8; stroke-linejoin: miter; stroke-linecap: square"/>
   </g>
   <g id="patch_5">
    <path d="M 108 384.48 
L 777.6 384.48 
" style="fill: none; stroke: #ffffff; stroke-width: 0.8; stroke-linejoin: miter; stroke-linecap: square"/>
   </g>
   <g id="patch_6">
    <path d="M 108 51.84 
L 777.6 51.84 
" style="fill: none; stroke: #ffffff; stroke-width: 0.8; stroke-linejoin: miter; stroke-linecap: square"/>
   </g>
   <g id="text_17">
    <!-- bpp and psnr -->
    <g style="fill: #262626" transform="translate(403.066875 45.84) scale(0.12 -0.12)">
     <defs>
      <path id="DejaVuSans-61" d="M 2194 1759 
Q 1497 1759 1228 1600 
Q 959 1441 959 1056 
Q 959 750 1161 570 
Q 1363 391 1709 391 
Q 2188 391 2477 730 
Q 2766 1069 2766 1631 
L 2766 1759 
L 2194 1759 
z
M 3341 1997 
L 3341 0 
L 2766 0 
L 2766 531 
Q 2569 213 2275 61 
Q 1981 -91 1556 -91 
Q 1019 -91 701 211 
Q 384 513 384 1019 
Q 384 1609 779 1909 
Q 1175 2209 1959 2209 
L 2766 2209 
L 2766 2266 
Q 2766 2663 2505 2880 
Q 2244 3097 1772 3097 
Q 1472 3097 1187 3025 
Q 903 2953 641 2809 
L 641 3341 
Q 956 3463 1253 3523 
Q 1550 3584 1831 3584 
Q 2591 3584 2966 3190 
Q 3341 2797 3341 1997 
z
" transform="scale(0.015625)"/>
      <path id="DejaVuSans-64" d="M 2906 2969 
L 2906 4863 
L 3481 4863 
L 3481 0 
L 2906 0 
L 2906 525 
Q 2725 213 2448 61 
Q 2172 -91 1784 -91 
Q 1150 -91 751 415 
Q 353 922 353 1747 
Q 353 2572 751 3078 
Q 1150 3584 1784 3584 
Q 2172 3584 2448 3432 
Q 2725 3281 2906 2969 
z
M 947 1747 
Q 947 1113 1208 752 
Q 1469 391 1925 391 
Q 2381 391 2643 752 
Q 2906 1113 2906 1747 
Q 2906 2381 2643 2742 
Q 2381 3103 1925 3103 
Q 1469 3103 1208 2742 
Q 947 2381 947 1747 
z
" transform="scale(0.015625)"/>
     </defs>
     <use xlink:href="#DejaVuSans-62"/>
     <use xlink:href="#DejaVuSans-70" x="63.476562"/>
     <use xlink:href="#DejaVuSans-70" x="126.953125"/>
     <use xlink:href="#DejaVuSans-20" x="190.429688"/>
     <use xlink:href="#DejaVuSans-61" x="222.216797"/>
     <use xlink:href="#DejaVuSans-6e" x="283.496094"/>
     <use xlink:href="#DejaVuSans-64" x="346.875"/>
     <use xlink:href="#DejaVuSans-20" x="410.351562"/>
     <use xlink:href="#DejaVuSans-70" x="442.138672"/>
     <use xlink:href="#DejaVuSans-73" x="505.615234"/>
     <use xlink:href="#DejaVuSans-6e" x="557.714844"/>
     <use xlink:href="#DejaVuSans-72" x="621.09375"/>
    </g>
   </g>
   <g id="legend_1">
    <g id="patch_7">
     <path d="M 115 148.186875 
L 172.229688 148.186875 
Q 174.229688 148.186875 174.229688 146.186875 
L 174.229688 58.84 
Q 174.229688 56.84 172.229688 56.84 
L 115 56.84 
Q 113 56.84 113 58.84 
L 113 146.186875 
Q 113 148.186875 115 148.186875 
z
" style="fill: #eaeaf2; opacity: 0.8; stroke: #cccccc; stroke-linejoin: miter"/>
    </g>
    <g id="text_18">
     <!-- img_name -->
     <g style="fill: #262626" transform="translate(117.501563 68.438437) scale(0.1 -0.1)">
      <defs>
       <path id="DejaVuSans-69" d="M 603 3500 
L 1178 3500 
L 1178 0 
L 603 0 
L 603 3500 
z
M 603 4863 
L 1178 4863 
L 1178 4134 
L 603 4134 
L 603 4863 
z
" transform="scale(0.015625)"/>
       <path id="DejaVuSans-6d" d="M 3328 2828 
Q 3544 3216 3844 3400 
Q 4144 3584 4550 3584 
Q 5097 3584 5394 3201 
Q 5691 2819 5691 2113 
L 5691 0 
L 5113 0 
L 5113 2094 
Q 5113 2597 4934 2840 
Q 4756 3084 4391 3084 
Q 3944 3084 3684 2787 
Q 3425 2491 3425 1978 
L 3425 0 
L 2847 0 
L 2847 2094 
Q 2847 2600 2669 2842 
Q 2491 3084 2119 3084 
Q 1678 3084 1418 2786 
Q 1159 2488 1159 1978 
L 1159 0 
L 581 0 
L 581 3500 
L 1159 3500 
L 1159 2956 
Q 1356 3278 1631 3431 
Q 1906 3584 2284 3584 
Q 2666 3584 2933 3390 
Q 3200 3197 3328 2828 
z
" transform="scale(0.015625)"/>
       <path id="DejaVuSans-67" d="M 2906 1791 
Q 2906 2416 2648 2759 
Q 2391 3103 1925 3103 
Q 1463 3103 1205 2759 
Q 947 2416 947 1791 
Q 947 1169 1205 825 
Q 1463 481 1925 481 
Q 2391 481 2648 825 
Q 2906 1169 2906 1791 
z
M 3481 434 
Q 3481 -459 3084 -895 
Q 2688 -1331 1869 -1331 
Q 1566 -1331 1297 -1286 
Q 1028 -1241 775 -1147 
L 775 -588 
Q 1028 -725 1275 -790 
Q 1522 -856 1778 -856 
Q 2344 -856 2625 -561 
Q 2906 -266 2906 331 
L 2906 616 
Q 2728 306 2450 153 
Q 2172 0 1784 0 
Q 1141 0 747 490 
Q 353 981 353 1791 
Q 353 2603 747 3093 
Q 1141 3584 1784 3584 
Q 2172 3584 2450 3431 
Q 2728 3278 2906 2969 
L 2906 3500 
L 3481 3500 
L 3481 434 
z
" transform="scale(0.015625)"/>
       <path id="DejaVuSans-5f" d="M 3263 -1063 
L 3263 -1509 
L -63 -1509 
L -63 -1063 
L 3263 -1063 
z
" transform="scale(0.015625)"/>
       <path id="DejaVuSans-65" d="M 3597 1894 
L 3597 1613 
L 953 1613 
Q 991 1019 1311 708 
Q 1631 397 2203 397 
Q 2534 397 2845 478 
Q 3156 559 3463 722 
L 3463 178 
Q 3153 47 2828 -22 
Q 2503 -91 2169 -91 
Q 1331 -91 842 396 
Q 353 884 353 1716 
Q 353 2575 817 3079 
Q 1281 3584 2069 3584 
Q 2775 3584 3186 3129 
Q 3597 2675 3597 1894 
z
M 3022 2063 
Q 3016 2534 2758 2815 
Q 2500 3097 2075 3097 
Q 1594 3097 1305 2825 
Q 1016 2553 972 2059 
L 3022 2063 
z
" transform="scale(0.015625)"/>
      </defs>
      <use xlink:href="#DejaVuSans-69"/>
      <use xlink:href="#DejaVuSans-6d" x="27.783203"/>
      <use xlink:href="#DejaVuSans-67" x="125.195312"/>
      <use xlink:href="#DejaVuSans-5f" x="188.671875"/>
      <use xlink:href="#DejaVuSans-6e" x="238.671875"/>
      <use xlink:href="#DejaVuSans-61" x="302.050781"/>
      <use xlink:href="#DejaVuSans-6d" x="363.330078"/>
      <use xlink:href="#DejaVuSans-65" x="460.742188"/>
     </g>
    </g>
    <g id="line2d_25">
     <path d="M 117 79.894687 
L 127 79.894687 
L 137 79.894687 
" style="fill: none; stroke: #1f77b4; stroke-width: 1.5; stroke-linecap: round"/>
    </g>
    <g id="text_19">
     <!-- img1 -->
     <g style="fill: #262626" transform="translate(145 83.394687) scale(0.1 -0.1)">
      <use xlink:href="#DejaVuSans-69"/>
      <use xlink:href="#DejaVuSans-6d" x="27.783203"/>
      <use xlink:href="#DejaVuSans-67" x="125.195312"/>
      <use xlink:href="#DejaVuSans-31" x="188.671875"/>
     </g>
    </g>
    <g id="line2d_26">
     <path d="M 117 94.572812 
L 127 94.572812 
L 137 94.572812 
" style="fill: none; stroke: #ff7f0e; stroke-width: 1.5; stroke-linecap: round"/>
    </g>
    <g id="text_20">
     <!-- img2 -->
     <g style="fill: #262626" transform="translate(145 98.072812) scale(0.1 -0.1)">
      <use xlink:href="#DejaVuSans-69"/>
      <use xlink:href="#DejaVuSans-6d" x="27.783203"/>
      <use xlink:href="#DejaVuSans-67" x="125.195312"/>
      <use xlink:href="#DejaVuSans-32" x="188.671875"/>
     </g>
    </g>
    <g id="line2d_27">
     <path d="M 117 109.250937 
L 127 109.250937 
L 137 109.250937 
" style="fill: none; stroke: #2ca02c; stroke-width: 1.5; stroke-linecap: round"/>
    </g>
    <g id="text_21">
     <!-- img3 -->
     <g style="fill: #262626" transform="translate(145 112.750937) scale(0.1 -0.1)">
      <defs>
       <path id="DejaVuSans-33" d="M 2597 2516 
Q 3050 2419 3304 2112 
Q 3559 1806 3559 1356 
Q 3559 666 3084 287 
Q 2609 -91 1734 -91 
Q 1441 -91 1130 -33 
Q 819 25 488 141 
L 488 750 
Q 750 597 1062 519 
Q 1375 441 1716 441 
Q 2309 441 2620 675 
Q 2931 909 2931 1356 
Q 2931 1769 2642 2001 
Q 2353 2234 1838 2234 
L 1294 2234 
L 1294 2753 
L 1863 2753 
Q 2328 2753 2575 2939 
Q 2822 3125 2822 3475 
Q 2822 3834 2567 4026 
Q 2313 4219 1838 4219 
Q 1578 4219 1281 4162 
Q 984 4106 628 3988 
L 628 4550 
Q 988 4650 1302 4700 
Q 1616 4750 1894 4750 
Q 2613 4750 3031 4423 
Q 3450 4097 3450 3541 
Q 3450 3153 3228 2886 
Q 3006 2619 2597 2516 
z
" transform="scale(0.015625)"/>
      </defs>
      <use xlink:href="#DejaVuSans-69"/>
      <use xlink:href="#DejaVuSans-6d" x="27.783203"/>
      <use xlink:href="#DejaVuSans-67" x="125.195312"/>
      <use xlink:href="#DejaVuSans-33" x="188.671875"/>
     </g>
    </g>
    <g id="line2d_28">
     <path d="M 117 123.929062 
L 127 123.929062 
L 137 123.929062 
" style="fill: none; stroke: #d62728; stroke-width: 1.5; stroke-linecap: round"/>
    </g>
    <g id="text_22">
     <!-- img4 -->
     <g style="fill: #262626" transform="translate(145 127.429062) scale(0.1 -0.1)">
      <use xlink:href="#DejaVuSans-69"/>
      <use xlink:href="#DejaVuSans-6d" x="27.783203"/>
      <use xlink:href="#DejaVuSans-67" x="125.195312"/>
      <use xlink:href="#DejaVuSans-34" x="188.671875"/>
     </g>
    </g>
    <g id="line2d_29">
     <path d="M 117 138.607188 
L 127 138.607188 
L 137 138.607188 
" style="fill: none; stroke: #9467bd; stroke-width: 1.5; stroke-linecap: round"/>
    </g>
    <g id="text_23">
     <!-- img5 -->
     <g style="fill: #262626" transform="translate(145 142.107188) scale(0.1 -0.1)">
      <defs>
       <path id="DejaVuSans-35" d="M 691 4666 
L 3169 4666 
L 3169 4134 
L 1269 4134 
L 1269 2991 
Q 1406 3038 1543 3061 
Q 1681 3084 1819 3084 
Q 2600 3084 3056 2656 
Q 3513 2228 3513 1497 
Q 3513 744 3044 326 
Q 2575 -91 1722 -91 
Q 1428 -91 1123 -41 
Q 819 9 494 109 
L 494 744 
Q 775 591 1075 516 
Q 1375 441 1709 441 
Q 2250 441 2565 725 
Q 2881 1009 2881 1497 
Q 2881 1984 2565 2268 
Q 2250 2553 1709 2553 
Q 1456 2553 1204 2497 
Q 953 2441 691 2322 
L 691 4666 
z
" transform="scale(0.015625)"/>
      </defs>
      <use xlink:href="#DejaVuSans-69"/>
      <use xlink:href="#DejaVuSans-6d" x="27.783203"/>
      <use xlink:href="#DejaVuSans-67" x="125.195312"/>
      <use xlink:href="#DejaVuSans-35" x="188.671875"/>
     </g>
    </g>
   </g>
  </g>
 </g>
 <defs>
  <clipPath id="pe3b7f19948">
   <rect x="108" y="51.84" width="669.6" height="332.64"/>
  </clipPath>
 </defs>
</svg>
