<?xml version="1.0" encoding="utf-8" standalone="no"?>
<!DOCTYPE svg PUBLIC "-//W3C//DTD SVG 1.1//EN"
  "http://www.w3.org/Graphics/SVG/1.1/DTD/svg11.dtd">
<svg xmlns:xlink="http://www.w3.org/1999/xlink" width="864pt" height="432pt" viewBox="0 0 864 432" xmlns="http://www.w3.org/2000/svg" version="1.1">
 <metadata>
  <rdf:RDF xmlns:dc="http://purl.org/dc/elements/1.1/" xmlns:cc="http://creativecommons.org/ns#" xmlns:rdf="http://www.w3.org/1999/02/22-rdf-syntax-ns#">
   <cc:Work>
    <dc:type rdf:resource="http://purl.org/dc/dcmitype/StillImage"/>
    <dc:date>2023-05-31T15:28:06.501190</dc:date>
    <dc:format>image/svg+xml</dc:format>
    <dc:creator>
     <cc:Agent>
      <dc:title>Matplotlib v3.7.0, https://matplotlib.org/</dc:title>
     </cc:Agent>
    </dc:creator>
   </cc:Work>
  </rdf:RDF>
 </metadata>
 <defs>
  <style type="text/css">*{stroke-linejoin: round; stroke-linecap: butt}</style>
 </defs>
 <g id="figure_1">
  <g id="patch_1">
   <path d="M 0 432 
L 864 432 
L 864 0 
L 0 0 
z
" style="fill: #ffffff"/>
  </g>
  <g id="axes_1">
   <g id="patch_2">
    <path d="M 108 384.48 
L 777.6 384.48 
L 777.6 51.84 
L 108 51.84 
z
" style="fill: #eaeaf2"/>
   </g>
   <g id="matplotlib.axis_1">
    <g id="xtick_1">
     <g id="line2d_1">
      <path d="M 138.430276 384.48 
L 138.430276 51.84 
" clip-path="url(#peef5a17032)" style="fill: none; stroke: #ffffff; stroke-width: 0.8; stroke-linecap: round"/>
     </g>
     <g id="text_1">
      <!-- 0 -->
      <g style="fill: #262626" transform="translate(135.249026 399.078438) scale(0.1 -0.1)">
       <defs>
        <path id="DejaVuSans-30" d="M 2034 4250 
Q 1547 4250 1301 3770 
Q 1056 3291 1056 2328 
Q 1056 1369 1301 889 
Q 1547 409 2034 409 
Q 2525 409 2770 889 
Q 3016 1369 3016 2328 
Q 3016 3291 2770 3770 
Q 2525 4250 2034 4250 
z
M 2034 4750 
Q 2819 4750 3233 4129 
Q 3647 3509 3647 2328 
Q 3647 1150 3233 529 
Q 2819 -91 2034 -91 
Q 1250 -91 836 529 
Q 422 1150 422 2328 
Q 422 3509 836 4129 
Q 1250 4750 2034 4750 
z
" transform="scale(0.015625)"/>
       </defs>
       <use xlink:href="#DejaVuSans-30"/>
      </g>
     </g>
    </g>
    <g id="xtick_2">
     <g id="line2d_2">
      <path d="M 260.176948 384.48 
L 260.176948 51.84 
" clip-path="url(#peef5a17032)" style="fill: none; stroke: #ffffff; stroke-width: 0.8; stroke-linecap: round"/>
     </g>
     <g id="text_2">
      <!-- 20 -->
      <g style="fill: #262626" transform="translate(253.814448 399.078438) scale(0.1 -0.1)">
       <defs>
        <path id="DejaVuSans-32" d="M 1228 531 
L 3431 531 
L 3431 0 
L 469 0 
L 469 531 
Q 828 903 1448 1529 
Q 2069 2156 2228 2338 
Q 2531 2678 2651 2914 
Q 2772 3150 2772 3378 
Q 2772 3750 2511 3984 
Q 2250 4219 1831 4219 
Q 1534 4219 1204 4116 
Q 875 4013 500 3803 
L 500 4441 
Q 881 4594 1212 4672 
Q 1544 4750 1819 4750 
Q 2544 4750 2975 4387 
Q 3406 4025 3406 3419 
Q 3406 3131 3298 2873 
Q 3191 2616 2906 2266 
Q 2828 2175 2409 1742 
Q 1991 1309 1228 531 
z
" transform="scale(0.015625)"/>
       </defs>
       <use xlink:href="#DejaVuSans-32"/>
       <use xlink:href="#DejaVuSans-30" x="63.623047"/>
      </g>
     </g>
    </g>
    <g id="xtick_3">
     <g id="line2d_3">
      <path d="M 381.92362 384.48 
L 381.92362 51.84 
" clip-path="url(#peef5a17032)" style="fill: none; stroke: #ffffff; stroke-width: 0.8; stroke-linecap: round"/>
     </g>
     <g id="text_3">
      <!-- 40 -->
      <g style="fill: #262626" transform="translate(375.56112 399.078438) scale(0.1 -0.1)">
       <defs>
        <path id="DejaVuSans-34" d="M 2419 4116 
L 825 1625 
L 2419 1625 
L 2419 4116 
z
M 2253 4666 
L 3047 4666 
L 3047 1625 
L 3713 1625 
L 3713 1100 
L 3047 1100 
L 3047 0 
L 2419 0 
L 2419 1100 
L 313 1100 
L 313 1709 
L 2253 4666 
z
" transform="scale(0.015625)"/>
       </defs>
       <use xlink:href="#DejaVuSans-34"/>
       <use xlink:href="#DejaVuSans-30" x="63.623047"/>
      </g>
     </g>
    </g>
    <g id="xtick_4">
     <g id="line2d_4">
      <path d="M 503.670292 384.48 
L 503.670292 51.84 
" clip-path="url(#peef5a17032)" style="fill: none; stroke: #ffffff; stroke-width: 0.8; stroke-linecap: round"/>
     </g>
     <g id="text_4">
      <!-- 60 -->
      <g style="fill: #262626" transform="translate(497.307792 399.078438) scale(0.1 -0.1)">
       <defs>
        <path id="DejaVuSans-36" d="M 2113 2584 
Q 1688 2584 1439 2293 
Q 1191 2003 1191 1497 
Q 1191 994 1439 701 
Q 1688 409 2113 409 
Q 2538 409 2786 701 
Q 3034 994 3034 1497 
Q 3034 2003 2786 2293 
Q 2538 2584 2113 2584 
z
M 3366 4563 
L 3366 3988 
Q 3128 4100 2886 4159 
Q 2644 4219 2406 4219 
Q 1781 4219 1451 3797 
Q 1122 3375 1075 2522 
Q 1259 2794 1537 2939 
Q 1816 3084 2150 3084 
Q 2853 3084 3261 2657 
Q 3669 2231 3669 1497 
Q 3669 778 3244 343 
Q 2819 -91 2113 -91 
Q 1303 -91 875 529 
Q 447 1150 447 2328 
Q 447 3434 972 4092 
Q 1497 4750 2381 4750 
Q 2619 4750 2861 4703 
Q 3103 4656 3366 4563 
z
" transform="scale(0.015625)"/>
       </defs>
       <use xlink:href="#DejaVuSans-36"/>
       <use xlink:href="#DejaVuSans-30" x="63.623047"/>
      </g>
     </g>
    </g>
    <g id="xtick_5">
     <g id="line2d_5">
      <path d="M 625.416964 384.48 
L 625.416964 51.84 
" clip-path="url(#peef5a17032)" style="fill: none; stroke: #ffffff; stroke-width: 0.8; stroke-linecap: round"/>
     </g>
     <g id="text_5">
      <!-- 80 -->
      <g style="fill: #262626" transform="translate(619.054464 399.078438) scale(0.1 -0.1)">
       <defs>
        <path id="DejaVuSans-38" d="M 2034 2216 
Q 1584 2216 1326 1975 
Q 1069 1734 1069 1313 
Q 1069 891 1326 650 
Q 1584 409 2034 409 
Q 2484 409 2743 651 
Q 3003 894 3003 1313 
Q 3003 1734 2745 1975 
Q 2488 2216 2034 2216 
z
M 1403 2484 
Q 997 2584 770 2862 
Q 544 3141 544 3541 
Q 544 4100 942 4425 
Q 1341 4750 2034 4750 
Q 2731 4750 3128 4425 
Q 3525 4100 3525 3541 
Q 3525 3141 3298 2862 
Q 3072 2584 2669 2484 
Q 3125 2378 3379 2068 
Q 3634 1759 3634 1313 
Q 3634 634 3220 271 
Q 2806 -91 2034 -91 
Q 1263 -91 848 271 
Q 434 634 434 1313 
Q 434 1759 690 2068 
Q 947 2378 1403 2484 
z
M 1172 3481 
Q 1172 3119 1398 2916 
Q 1625 2713 2034 2713 
Q 2441 2713 2670 2916 
Q 2900 3119 2900 3481 
Q 2900 3844 2670 4047 
Q 2441 4250 2034 4250 
Q 1625 4250 1398 4047 
Q 1172 3844 1172 3481 
z
" transform="scale(0.015625)"/>
       </defs>
       <use xlink:href="#DejaVuSans-38"/>
       <use xlink:href="#DejaVuSans-30" x="63.623047"/>
      </g>
     </g>
    </g>
    <g id="xtick_6">
     <g id="line2d_6">
      <path d="M 747.163636 384.48 
L 747.163636 51.84 
" clip-path="url(#peef5a17032)" style="fill: none; stroke: #ffffff; stroke-width: 0.8; stroke-linecap: round"/>
     </g>
     <g id="text_6">
      <!-- 100 -->
      <g style="fill: #262626" transform="translate(737.619886 399.078438) scale(0.1 -0.1)">
       <defs>
        <path id="DejaVuSans-31" d="M 794 531 
L 1825 531 
L 1825 4091 
L 703 3866 
L 703 4441 
L 1819 4666 
L 2450 4666 
L 2450 531 
L 3481 531 
L 3481 0 
L 794 0 
L 794 531 
z
" transform="scale(0.015625)"/>
       </defs>
       <use xlink:href="#DejaVuSans-31"/>
       <use xlink:href="#DejaVuSans-30" x="63.623047"/>
       <use xlink:href="#DejaVuSans-30" x="127.246094"/>
      </g>
     </g>
    </g>
    <g id="text_7">
     <!-- Q Quantization Step -->
     <g style="fill: #262626" transform="translate(392.348437 412.756563) scale(0.1 -0.1)">
      <defs>
       <path id="DejaVuSans-51" d="M 2522 4238 
Q 1834 4238 1429 3725 
Q 1025 3213 1025 2328 
Q 1025 1447 1429 934 
Q 1834 422 2522 422 
Q 3209 422 3611 934 
Q 4013 1447 4013 2328 
Q 4013 3213 3611 3725 
Q 3209 4238 2522 4238 
z
M 3406 84 
L 4238 -825 
L 3475 -825 
L 2784 -78 
Q 2681 -84 2626 -87 
Q 2572 -91 2522 -91 
Q 1538 -91 948 567 
Q 359 1225 359 2328 
Q 359 3434 948 4092 
Q 1538 4750 2522 4750 
Q 3503 4750 4090 4092 
Q 4678 3434 4678 2328 
Q 4678 1516 4351 937 
Q 4025 359 3406 84 
z
" transform="scale(0.015625)"/>
       <path id="DejaVuSans-20" transform="scale(0.015625)"/>
       <path id="DejaVuSans-75" d="M 544 1381 
L 544 3500 
L 1119 3500 
L 1119 1403 
Q 1119 906 1312 657 
Q 1506 409 1894 409 
Q 2359 409 2629 706 
Q 2900 1003 2900 1516 
L 2900 3500 
L 3475 3500 
L 3475 0 
L 2900 0 
L 2900 538 
Q 2691 219 2414 64 
Q 2138 -91 1772 -91 
Q 1169 -91 856 284 
Q 544 659 544 1381 
z
M 1991 3584 
L 1991 3584 
z
" transform="scale(0.015625)"/>
       <path id="DejaVuSans-61" d="M 2194 1759 
Q 1497 1759 1228 1600 
Q 959 1441 959 1056 
Q 959 750 1161 570 
Q 1363 391 1709 391 
Q 2188 391 2477 730 
Q 2766 1069 2766 1631 
L 2766 1759 
L 2194 1759 
z
M 3341 1997 
L 3341 0 
L 2766 0 
L 2766 531 
Q 2569 213 2275 61 
Q 1981 -91 1556 -91 
Q 1019 -91 701 211 
Q 384 513 384 1019 
Q 384 1609 779 1909 
Q 1175 2209 1959 2209 
L 2766 2209 
L 2766 2266 
Q 2766 2663 2505 2880 
Q 2244 3097 1772 3097 
Q 1472 3097 1187 3025 
Q 903 2953 641 2809 
L 641 3341 
Q 956 3463 1253 3523 
Q 1550 3584 1831 3584 
Q 2591 3584 2966 3190 
Q 3341 2797 3341 1997 
z
" transform="scale(0.015625)"/>
       <path id="DejaVuSans-6e" d="M 3513 2113 
L 3513 0 
L 2938 0 
L 2938 2094 
Q 2938 2591 2744 2837 
Q 2550 3084 2163 3084 
Q 1697 3084 1428 2787 
Q 1159 2491 1159 1978 
L 1159 0 
L 581 0 
L 581 3500 
L 1159 3500 
L 1159 2956 
Q 1366 3272 1645 3428 
Q 1925 3584 2291 3584 
Q 2894 3584 3203 3211 
Q 3513 2838 3513 2113 
z
" transform="scale(0.015625)"/>
       <path id="DejaVuSans-74" d="M 1172 4494 
L 1172 3500 
L 2356 3500 
L 2356 3053 
L 1172 3053 
L 1172 1153 
Q 1172 725 1289 603 
Q 1406 481 1766 481 
L 2356 481 
L 2356 0 
L 1766 0 
Q 1100 0 847 248 
Q 594 497 594 1153 
L 594 3053 
L 172 3053 
L 172 3500 
L 594 3500 
L 594 4494 
L 1172 4494 
z
" transform="scale(0.015625)"/>
       <path id="DejaVuSans-69" d="M 603 3500 
L 1178 3500 
L 1178 0 
L 603 0 
L 603 3500 
z
M 603 4863 
L 1178 4863 
L 1178 4134 
L 603 4134 
L 603 4863 
z
" transform="scale(0.015625)"/>
       <path id="DejaVuSans-7a" d="M 353 3500 
L 3084 3500 
L 3084 2975 
L 922 459 
L 3084 459 
L 3084 0 
L 275 0 
L 275 525 
L 2438 3041 
L 353 3041 
L 353 3500 
z
" transform="scale(0.015625)"/>
       <path id="DejaVuSans-6f" d="M 1959 3097 
Q 1497 3097 1228 2736 
Q 959 2375 959 1747 
Q 959 1119 1226 758 
Q 1494 397 1959 397 
Q 2419 397 2687 759 
Q 2956 1122 2956 1747 
Q 2956 2369 2687 2733 
Q 2419 3097 1959 3097 
z
M 1959 3584 
Q 2709 3584 3137 3096 
Q 3566 2609 3566 1747 
Q 3566 888 3137 398 
Q 2709 -91 1959 -91 
Q 1206 -91 779 398 
Q 353 888 353 1747 
Q 353 2609 779 3096 
Q 1206 3584 1959 3584 
z
" transform="scale(0.015625)"/>
       <path id="DejaVuSans-53" d="M 3425 4513 
L 3425 3897 
Q 3066 4069 2747 4153 
Q 2428 4238 2131 4238 
Q 1616 4238 1336 4038 
Q 1056 3838 1056 3469 
Q 1056 3159 1242 3001 
Q 1428 2844 1947 2747 
L 2328 2669 
Q 3034 2534 3370 2195 
Q 3706 1856 3706 1288 
Q 3706 609 3251 259 
Q 2797 -91 1919 -91 
Q 1588 -91 1214 -16 
Q 841 59 441 206 
L 441 856 
Q 825 641 1194 531 
Q 1563 422 1919 422 
Q 2459 422 2753 634 
Q 3047 847 3047 1241 
Q 3047 1584 2836 1778 
Q 2625 1972 2144 2069 
L 1759 2144 
Q 1053 2284 737 2584 
Q 422 2884 422 3419 
Q 422 4038 858 4394 
Q 1294 4750 2059 4750 
Q 2388 4750 2728 4690 
Q 3069 4631 3425 4513 
z
" transform="scale(0.015625)"/>
       <path id="DejaVuSans-65" d="M 3597 1894 
L 3597 1613 
L 953 1613 
Q 991 1019 1311 708 
Q 1631 397 2203 397 
Q 2534 397 2845 478 
Q 3156 559 3463 722 
L 3463 178 
Q 3153 47 2828 -22 
Q 2503 -91 2169 -91 
Q 1331 -91 842 396 
Q 353 884 353 1716 
Q 353 2575 817 3079 
Q 1281 3584 2069 3584 
Q 2775 3584 3186 3129 
Q 3597 2675 3597 1894 
z
M 3022 2063 
Q 3016 2534 2758 2815 
Q 2500 3097 2075 3097 
Q 1594 3097 1305 2825 
Q 1016 2553 972 2059 
L 3022 2063 
z
" transform="scale(0.015625)"/>
       <path id="DejaVuSans-70" d="M 1159 525 
L 1159 -1331 
L 581 -1331 
L 581 3500 
L 1159 3500 
L 1159 2969 
Q 1341 3281 1617 3432 
Q 1894 3584 2278 3584 
Q 2916 3584 3314 3078 
Q 3713 2572 3713 1747 
Q 3713 922 3314 415 
Q 2916 -91 2278 -91 
Q 1894 -91 1617 61 
Q 1341 213 1159 525 
z
M 3116 1747 
Q 3116 2381 2855 2742 
Q 2594 3103 2138 3103 
Q 1681 3103 1420 2742 
Q 1159 2381 1159 1747 
Q 1159 1113 1420 752 
Q 1681 391 2138 391 
Q 2594 391 2855 752 
Q 3116 1113 3116 1747 
z
" transform="scale(0.015625)"/>
      </defs>
      <use xlink:href="#DejaVuSans-51"/>
      <use xlink:href="#DejaVuSans-20" x="78.710938"/>
      <use xlink:href="#DejaVuSans-51" x="110.498047"/>
      <use xlink:href="#DejaVuSans-75" x="189.208984"/>
      <use xlink:href="#DejaVuSans-61" x="252.587891"/>
      <use xlink:href="#DejaVuSans-6e" x="313.867188"/>
      <use xlink:href="#DejaVuSans-74" x="377.246094"/>
      <use xlink:href="#DejaVuSans-69" x="416.455078"/>
      <use xlink:href="#DejaVuSans-7a" x="444.238281"/>
      <use xlink:href="#DejaVuSans-61" x="496.728516"/>
      <use xlink:href="#DejaVuSans-74" x="558.007812"/>
      <use xlink:href="#DejaVuSans-69" x="597.216797"/>
      <use xlink:href="#DejaVuSans-6f" x="625"/>
      <use xlink:href="#DejaVuSans-6e" x="686.181641"/>
      <use xlink:href="#DejaVuSans-20" x="749.560547"/>
      <use xlink:href="#DejaVuSans-53" x="781.347656"/>
      <use xlink:href="#DejaVuSans-74" x="844.824219"/>
      <use xlink:href="#DejaVuSans-65" x="884.033203"/>
      <use xlink:href="#DejaVuSans-70" x="945.556641"/>
     </g>
    </g>
   </g>
   <g id="matplotlib.axis_2">
    <g id="ytick_1">
     <g id="line2d_7">
      <path d="M 108 371.153472 
L 777.6 371.153472 
" clip-path="url(#peef5a17032)" style="fill: none; stroke: #ffffff; stroke-width: 0.8; stroke-linecap: round"/>
     </g>
     <g id="text_8">
      <!-- 0 -->
      <g style="fill: #262626" transform="translate(94.6375 374.95269) scale(0.1 -0.1)">
       <use xlink:href="#DejaVuSans-30"/>
      </g>
     </g>
    </g>
    <g id="ytick_2">
     <g id="line2d_8">
      <path d="M 108 331.485247 
L 777.6 331.485247 
" clip-path="url(#peef5a17032)" style="fill: none; stroke: #ffffff; stroke-width: 0.8; stroke-linecap: round"/>
     </g>
     <g id="text_9">
      <!-- 2 -->
      <g style="fill: #262626" transform="translate(94.6375 335.284466) scale(0.1 -0.1)">
       <use xlink:href="#DejaVuSans-32"/>
      </g>
     </g>
    </g>
    <g id="ytick_3">
     <g id="line2d_9">
      <path d="M 108 291.817022 
L 777.6 291.817022 
" clip-path="url(#peef5a17032)" style="fill: none; stroke: #ffffff; stroke-width: 0.8; stroke-linecap: round"/>
     </g>
     <g id="text_10">
      <!-- 4 -->
      <g style="fill: #262626" transform="translate(94.6375 295.616241) scale(0.1 -0.1)">
       <use xlink:href="#DejaVuSans-34"/>
      </g>
     </g>
    </g>
    <g id="ytick_4">
     <g id="line2d_10">
      <path d="M 108 252.148797 
L 777.6 252.148797 
" clip-path="url(#peef5a17032)" style="fill: none; stroke: #ffffff; stroke-width: 0.8; stroke-linecap: round"/>
     </g>
     <g id="text_11">
      <!-- 6 -->
      <g style="fill: #262626" transform="translate(94.6375 255.948016) scale(0.1 -0.1)">
       <use xlink:href="#DejaVuSans-36"/>
      </g>
     </g>
    </g>
    <g id="ytick_5">
     <g id="line2d_11">
      <path d="M 108 212.480573 
L 777.6 212.480573 
" clip-path="url(#peef5a17032)" style="fill: none; stroke: #ffffff; stroke-width: 0.8; stroke-linecap: round"/>
     </g>
     <g id="text_12">
      <!-- 8 -->
      <g style="fill: #262626" transform="translate(94.6375 216.279791) scale(0.1 -0.1)">
       <use xlink:href="#DejaVuSans-38"/>
      </g>
     </g>
    </g>
    <g id="ytick_6">
     <g id="line2d_12">
      <path d="M 108 172.812348 
L 777.6 172.812348 
" clip-path="url(#peef5a17032)" style="fill: none; stroke: #ffffff; stroke-width: 0.8; stroke-linecap: round"/>
     </g>
     <g id="text_13">
      <!-- 10 -->
      <g style="fill: #262626" transform="translate(88.275 176.611567) scale(0.1 -0.1)">
       <use xlink:href="#DejaVuSans-31"/>
       <use xlink:href="#DejaVuSans-30" x="63.623047"/>
      </g>
     </g>
    </g>
    <g id="ytick_7">
     <g id="line2d_13">
      <path d="M 108 133.144123 
L 777.6 133.144123 
" clip-path="url(#peef5a17032)" style="fill: none; stroke: #ffffff; stroke-width: 0.8; stroke-linecap: round"/>
     </g>
     <g id="text_14">
      <!-- 12 -->
      <g style="fill: #262626" transform="translate(88.275 136.943342) scale(0.1 -0.1)">
       <use xlink:href="#DejaVuSans-31"/>
       <use xlink:href="#DejaVuSans-32" x="63.623047"/>
      </g>
     </g>
    </g>
    <g id="ytick_8">
     <g id="line2d_14">
      <path d="M 108 93.475898 
L 777.6 93.475898 
" clip-path="url(#peef5a17032)" style="fill: none; stroke: #ffffff; stroke-width: 0.8; stroke-linecap: round"/>
     </g>
     <g id="text_15">
      <!-- 14 -->
      <g style="fill: #262626" transform="translate(88.275 97.275117) scale(0.1 -0.1)">
       <use xlink:href="#DejaVuSans-31"/>
       <use xlink:href="#DejaVuSans-34" x="63.623047"/>
      </g>
     </g>
    </g>
    <g id="ytick_9">
     <g id="line2d_15">
      <path d="M 108 53.807674 
L 777.6 53.807674 
" clip-path="url(#peef5a17032)" style="fill: none; stroke: #ffffff; stroke-width: 0.8; stroke-linecap: round"/>
     </g>
     <g id="text_16">
      <!-- 16 -->
      <g style="fill: #262626" transform="translate(88.275 57.606892) scale(0.1 -0.1)">
       <use xlink:href="#DejaVuSans-31"/>
       <use xlink:href="#DejaVuSans-36" x="63.623047"/>
      </g>
     </g>
    </g>
    <g id="text_17">
     <!-- R bpp -->
     <g style="fill: #262626" transform="translate(82.195312 232.745937) rotate(-90) scale(0.1 -0.1)">
      <defs>
       <path id="DejaVuSans-52" d="M 2841 2188 
Q 3044 2119 3236 1894 
Q 3428 1669 3622 1275 
L 4263 0 
L 3584 0 
L 2988 1197 
Q 2756 1666 2539 1819 
Q 2322 1972 1947 1972 
L 1259 1972 
L 1259 0 
L 628 0 
L 628 4666 
L 2053 4666 
Q 2853 4666 3247 4331 
Q 3641 3997 3641 3322 
Q 3641 2881 3436 2590 
Q 3231 2300 2841 2188 
z
M 1259 4147 
L 1259 2491 
L 2053 2491 
Q 2509 2491 2742 2702 
Q 2975 2913 2975 3322 
Q 2975 3731 2742 3939 
Q 2509 4147 2053 4147 
L 1259 4147 
z
" transform="scale(0.015625)"/>
       <path id="DejaVuSans-62" d="M 3116 1747 
Q 3116 2381 2855 2742 
Q 2594 3103 2138 3103 
Q 1681 3103 1420 2742 
Q 1159 2381 1159 1747 
Q 1159 1113 1420 752 
Q 1681 391 2138 391 
Q 2594 391 2855 752 
Q 3116 1113 3116 1747 
z
M 1159 2969 
Q 1341 3281 1617 3432 
Q 1894 3584 2278 3584 
Q 2916 3584 3314 3078 
Q 3713 2572 3713 1747 
Q 3713 922 3314 415 
Q 2916 -91 2278 -91 
Q 1894 -91 1617 61 
Q 1341 213 1159 525 
L 1159 0 
L 581 0 
L 581 4863 
L 1159 4863 
L 1159 2969 
z
" transform="scale(0.015625)"/>
      </defs>
      <use xlink:href="#DejaVuSans-52"/>
      <use xlink:href="#DejaVuSans-20" x="69.482422"/>
      <use xlink:href="#DejaVuSans-62" x="101.269531"/>
      <use xlink:href="#DejaVuSans-70" x="164.746094"/>
      <use xlink:href="#DejaVuSans-70" x="228.222656"/>
     </g>
    </g>
   </g>
   <g id="PolyCollection_1"/>
   <g id="PolyCollection_2"/>
   <g id="PolyCollection_3"/>
   <g id="PolyCollection_4"/>
   <g id="PolyCollection_5"/>
   <g id="line2d_16">
    <path d="M 138.436364 85.447949 
L 138.437114 88.935625 
L 138.437958 92.20237 
L 138.438905 95.257264 
L 138.439969 98.511298 
L 138.441164 101.410028 
L 138.442507 105.001208 
L 138.444016 108.497357 
L 138.44571 111.8325 
L 138.447613 114.861972 
L 138.449751 118.079689 
L 138.452153 120.962681 
L 138.454851 124.837136 
L 138.457882 128.293942 
L 138.461286 131.384548 
L 138.46511 134.42431 
L 138.469406 137.676528 
L 138.474232 140.669077 
L 138.479653 144.453344 
L 138.485742 147.862332 
L 138.492582 150.954149 
L 138.500266 154.134338 
L 138.508897 157.256419 
L 138.518593 160.229599 
L 138.529485 163.998734 
L 138.541719 167.424065 
L 138.555463 170.77555 
L 138.570902 173.703939 
L 138.588244 176.883522 
L 138.607725 179.816753 
L 138.629609 183.562887 
L 138.654192 187.155278 
L 138.681806 190.372994 
L 138.712825 193.266276 
L 138.74767 196.340539 
L 138.786813 199.382117 
L 138.830782 203.149436 
L 138.880174 206.755749 
L 138.935657 210.055179 
L 138.997983 212.945435 
L 139.067995 216.09778 
L 139.146641 219.139358 
L 139.234986 222.967811 
L 139.334226 226.386484 
L 139.445705 229.955268 
L 139.570931 232.745651 
L 139.711602 235.921603 
L 139.86962 238.826385 
L 140.047126 242.245058 
L 140.246522 245.701863 
L 140.470509 249.51579 
L 140.722118 252.522261 
L 141.004758 255.426438 
L 141.322253 258.524912 
L 141.678903 261.820106 
L 142.079537 264.866526 
L 142.529578 268.32999 
L 143.035121 271.289854 
L 143.603009 274.787214 
L 144.240931 277.693207 
L 144.957525 281.055588 
L 145.762491 283.918 
L 146.666729 286.759227 
L 147.682482 289.869807 
L 148.823501 292.563344 
L 150.105236 295.58071 
L 151.545039 298.532704 
L 153.162404 301.087024 
L 154.97923 304.305952 
L 157.020114 307.728256 
L 159.312687 310.817046 
L 161.88799 313.802332 
L 164.78089 316.43655 
L 168.030554 319.242065 
L 171.68098 322.796322 
L 175.781591 327.064215 
L 180.387906 330.61242 
L 185.56229 334.347054 
L 191.3748 338.210008 
L 197.904132 341.772135 
L 205.238687 344.908743 
L 213.47777 348.195462 
L 222.73293 351.023978 
L 233.129473 353.647906 
L 244.80816 355.650808 
L 257.927109 357.677316 
L 272.663941 359.282542 
L 289.218178 360.663812 
L 307.81395 361.893759 
L 328.703027 362.99357 
L 352.168231 363.946295 
L 378.527257 364.839096 
L 408.136985 365.592076 
L 441.398304 366.320238 
L 478.761543 366.963055 
L 520.732567 367.564107 
L 567.879628 368.081629 
L 620.841054 368.536202 
L 680.333896 368.976247 
L 747.163636 369.36 
" clip-path="url(#peef5a17032)" style="fill: none; stroke: #1f77b4; stroke-width: 1.5; stroke-linecap: round"/>
   </g>
   <g id="line2d_17">
    <path d="M 138.436364 89.172898 
L 138.437114 92.471724 
L 138.437958 95.565356 
L 138.438905 98.804258 
L 138.439969 102.458388 
L 138.441164 105.58289 
L 138.442507 108.660785 
L 138.444016 111.952347 
L 138.44571 115.078665 
L 138.447613 118.326041 
L 138.449751 121.949302 
L 138.452153 125.070172 
L 138.454851 128.406526 
L 138.457882 131.657533 
L 138.461286 134.562315 
L 138.46511 137.824824 
L 138.469406 141.464427 
L 138.474232 144.662169 
L 138.479653 148.091132 
L 138.485742 151.142999 
L 138.492582 154.062308 
L 138.500266 157.467665 
L 138.508897 160.951709 
L 138.518593 164.167609 
L 138.529485 167.593546 
L 138.541719 170.621201 
L 138.555463 173.634936 
L 138.570902 176.970079 
L 138.588244 180.474097 
L 138.607725 183.688787 
L 138.629609 187.105644 
L 138.654192 190.36331 
L 138.681806 193.298962 
L 138.712825 196.464018 
L 138.74767 199.99588 
L 138.786813 203.202096 
L 138.830782 206.359284 
L 138.880174 209.640556 
L 138.935657 212.910328 
L 138.997983 216.175862 
L 139.067995 219.58364 
L 139.146641 222.933915 
L 139.234986 226.164948 
L 139.334226 229.39356 
L 139.445705 232.857629 
L 139.570931 235.93613 
L 139.711602 239.554548 
L 139.86962 242.631837 
L 140.047126 245.540251 
L 140.246522 248.356056 
L 140.470509 252.159693 
L 140.722118 255.759952 
L 141.004758 258.519465 
L 141.322253 261.90061 
L 141.678903 265.341073 
L 142.079537 268.01645 
L 142.529578 271.542259 
L 143.035121 274.549941 
L 143.603009 277.641152 
L 144.240931 280.533223 
L 144.957525 283.908315 
L 145.762491 286.919628 
L 146.666729 289.952126 
L 147.682482 293.785422 
L 148.823501 296.233816 
L 150.105236 299.229997 
L 151.545039 302.583299 
L 153.162404 305.368839 
L 154.97923 308.73122 
L 157.020114 312.484012 
L 159.312687 315.566144 
L 161.88799 319.28383 
L 164.78089 322.980935 
L 168.030554 326.443189 
L 171.68098 329.832808 
L 175.781591 333.488754 
L 180.387906 336.365693 
L 185.56229 339.405454 
L 191.3748 342.309026 
L 197.904132 344.905716 
L 205.238687 347.210052 
L 213.47777 349.445384 
L 222.73293 351.430127 
L 233.129473 353.314392 
L 244.80816 354.93233 
L 257.927109 356.469159 
L 272.663941 357.823796 
L 289.218178 359.080981 
L 307.81395 360.180186 
L 328.703027 361.232784 
L 352.168231 362.290829 
L 378.527257 363.230238 
L 408.136985 364.139382 
L 441.398304 364.957733 
L 478.761543 365.70708 
L 520.732567 366.393478 
L 567.879628 367.133141 
L 620.841054 367.739641 
L 680.333896 368.296507 
L 747.163636 368.718394 
" clip-path="url(#peef5a17032)" style="fill: none; stroke: #ff7f0e; stroke-width: 1.5; stroke-linecap: round"/>
   </g>
   <g id="line2d_18">
    <path d="M 138.436364 79.187445 
L 138.437114 82.547404 
L 138.437958 85.724567 
L 138.438905 88.919282 
L 138.439969 92.71384 
L 138.441164 95.52117 
L 138.442507 98.746756 
L 138.444016 102.117611 
L 138.44571 105.360144 
L 138.447613 108.520964 
L 138.449751 112.284046 
L 138.452153 115.093798 
L 138.454851 118.545156 
L 138.457882 121.894826 
L 138.461286 124.93035 
L 138.46511 128.107513 
L 138.469406 131.876043 
L 138.474232 134.789904 
L 138.479653 138.291501 
L 138.485742 141.476533 
L 138.492582 144.5169 
L 138.500266 147.8472 
L 138.508897 151.446854 
L 138.518593 154.363137 
L 138.529485 157.878656 
L 138.541719 161.048555 
L 138.555463 164.303194 
L 138.570902 167.424065 
L 138.588244 171.051562 
L 138.607725 173.958765 
L 138.629609 177.582026 
L 138.654192 180.840902 
L 138.681806 183.958141 
L 138.712825 186.986402 
L 138.74767 190.46742 
L 138.786813 193.546525 
L 138.830782 197.111072 
L 138.880174 200.433504 
L 138.935657 203.558006 
L 138.997983 206.753327 
L 139.067995 210.232529 
L 139.146641 213.52288 
L 139.234986 216.982713 
L 139.334226 220.207088 
L 139.445705 223.476254 
L 139.570931 226.399195 
L 139.711602 229.924398 
L 139.86962 233.367283 
L 140.047126 236.451836 
L 140.246522 239.687711 
L 140.470509 243.142096 
L 140.722118 246.223017 
L 141.004758 249.156248 
L 141.322253 252.912672 
L 141.678903 256.311976 
L 142.079537 259.271839 
L 142.529578 262.344892 
L 143.035121 265.267227 
L 143.603009 268.388703 
L 144.240931 271.634263 
L 144.957525 275.055357 
L 145.762491 277.974666 
L 146.666729 280.978111 
L 147.682482 284.24304 
L 148.823501 287.14298 
L 150.105236 290.192426 
L 151.545039 293.511831 
L 153.162404 296.292529 
L 154.97923 299.309896 
L 157.020114 302.40837 
L 159.312687 304.926978 
L 161.88799 308.117457 
L 164.78089 311.603317 
L 168.030554 315.172101 
L 171.68098 318.727569 
L 175.781591 322.751531 
L 180.387906 326.029776 
L 185.56229 329.506557 
L 191.3748 333.069894 
L 197.904132 336.233134 
L 205.238687 339.117942 
L 213.47777 342.067516 
L 222.73293 344.618204 
L 233.129473 347.069625 
L 244.80816 349.091895 
L 257.927109 351.085112 
L 272.663941 352.819871 
L 289.218178 354.426913 
L 307.81395 355.870528 
L 328.703027 357.251797 
L 352.168231 358.490824 
L 378.527257 359.704429 
L 408.136985 360.824819 
L 441.398304 361.904049 
L 478.761543 362.912461 
L 520.732567 363.843395 
L 567.879628 364.623613 
L 620.841054 365.396567 
L 680.333896 366.119282 
L 747.163636 366.823839 
" clip-path="url(#peef5a17032)" style="fill: none; stroke: #2ca02c; stroke-width: 1.5; stroke-linecap: round"/>
   </g>
   <g id="line2d_19">
    <path d="M 138.436364 68.719575 
L 138.437114 71.951214 
L 138.437958 75.213722 
L 138.438905 78.411464 
L 138.439969 81.849506 
L 138.441164 85.005483 
L 138.442507 88.425366 
L 138.444016 91.661847 
L 138.44571 95.000622 
L 138.447613 98.185653 
L 138.449751 101.556508 
L 138.452153 104.715511 
L 138.454851 108.274006 
L 138.457882 111.483248 
L 138.461286 114.702176 
L 138.46511 117.904155 
L 138.469406 121.293774 
L 138.474232 124.555071 
L 138.479653 128.040931 
L 138.485742 131.196908 
L 138.492582 134.421283 
L 138.500266 137.774585 
L 138.508897 141.006223 
L 138.518593 144.266915 
L 138.529485 147.795145 
L 138.541719 150.888778 
L 138.555463 154.365558 
L 138.570902 157.495508 
L 138.588244 160.792517 
L 138.607725 163.997523 
L 138.629609 167.586282 
L 138.654192 170.76405 
L 138.681806 174.158511 
L 138.712825 177.195851 
L 138.74767 180.604234 
L 138.786813 183.714815 
L 138.830782 187.314469 
L 138.880174 190.516448 
L 138.935657 193.917567 
L 138.997983 197.06386 
L 139.067995 200.342106 
L 139.146641 203.667564 
L 139.234986 206.836252 
L 139.334226 210.210133 
L 139.445705 213.872132 
L 139.570931 216.999661 
L 139.711602 220.324514 
L 139.86962 223.395145 
L 140.047126 226.58744 
L 140.246522 229.91774 
L 140.470509 233.636636 
L 140.722118 236.962094 
L 141.004758 240.050279 
L 141.322253 243.089436 
L 141.678903 246.292626 
L 142.079537 249.426207 
L 142.529578 253.04402 
L 143.035121 256.267184 
L 143.603009 259.281524 
L 144.240931 262.26681 
L 144.957525 265.546871 
L 145.762491 268.802721 
L 146.666729 272.141495 
L 147.682482 275.456058 
L 148.823501 278.323313 
L 150.105236 281.205094 
L 151.545039 283.85626 
L 153.162404 286.876653 
L 154.97923 290.131292 
L 157.020114 293.2794 
L 159.312687 296.024386 
L 161.88799 299.136178 
L 164.78089 302.31455 
L 168.030554 305.469922 
L 171.68098 308.66827 
L 175.781591 312.748524 
L 180.387906 316.464393 
L 185.56229 320.387272 
L 191.3748 324.270201 
L 197.904132 327.871671 
L 205.238687 331.163838 
L 213.47777 334.475375 
L 222.73293 337.496978 
L 233.129473 340.367259 
L 244.80816 342.793257 
L 257.927109 345.247704 
L 272.663941 347.404955 
L 289.218178 349.426015 
L 307.81395 351.361124 
L 328.703027 353.21694 
L 352.168231 354.987411 
L 378.527257 356.59869 
L 408.136985 358.20997 
L 441.398304 359.708666 
L 478.761543 361.08933 
L 520.732567 362.326541 
L 567.879628 363.521987 
L 620.841054 364.612718 
L 680.333896 365.615077 
L 747.163636 366.467324 
" clip-path="url(#peef5a17032)" style="fill: none; stroke: #d62728; stroke-width: 1.5; stroke-linecap: round"/>
   </g>
   <g id="line2d_20">
    <path d="M 138.436364 66.96 
L 138.437114 70.371409 
L 138.437958 73.603048 
L 138.438905 76.90611 
L 138.439969 80.043929 
L 138.441164 83.357886 
L 138.442507 86.736005 
L 138.444016 90.141966 
L 138.44571 93.452897 
L 138.447613 96.740222 
L 138.449751 99.83446 
L 138.452153 103.136312 
L 138.454851 106.771073 
L 138.457882 110.130427 
L 138.461286 113.221639 
L 138.46511 116.530754 
L 138.469406 119.65223 
L 138.474232 123.011584 
L 138.479653 126.627581 
L 138.485742 129.928222 
L 138.492582 133.027908 
L 138.500266 136.447186 
L 138.508897 139.436708 
L 138.518593 142.790615 
L 138.529485 146.457456 
L 138.541719 149.698779 
L 138.555463 153.062371 
L 138.570902 156.238928 
L 138.588244 159.347087 
L 138.607725 162.585384 
L 138.629609 166.256462 
L 138.654192 169.661213 
L 138.681806 172.960644 
L 138.712825 176.022196 
L 138.74767 179.169094 
L 138.786813 182.358362 
L 138.830782 185.846038 
L 138.880174 189.35853 
L 138.935657 192.785071 
L 138.997983 195.913811 
L 139.067995 198.905755 
L 139.146641 202.38314 
L 139.234986 205.793944 
L 139.334226 209.313095 
L 139.445705 212.713609 
L 139.570931 215.767292 
L 139.711602 219.030406 
L 139.86962 222.216042 
L 140.047126 225.584476 
L 140.246522 228.952909 
L 140.470509 232.358266 
L 140.722118 235.766649 
L 141.004758 238.797936 
L 141.322253 241.841935 
L 141.678903 245.332637 
L 142.079537 248.71015 
L 142.529578 252.053162 
L 143.035121 255.111687 
L 143.603009 258.282797 
L 144.240931 261.240239 
L 144.957525 264.441008 
L 145.762491 267.546746 
L 146.666729 270.897626 
L 147.682482 274.096579 
L 148.823501 277.127262 
L 150.105236 280.485405 
L 151.545039 283.723097 
L 153.162404 286.759832 
L 154.97923 289.611954 
L 157.020114 292.874462 
L 159.312687 296.1061 
L 161.88799 299.272368 
L 164.78089 302.309103 
L 168.030554 305.25565 
L 171.68098 308.056323 
L 175.781591 311.395702 
L 180.387906 314.851903 
L 185.56229 318.000617 
L 191.3748 321.065801 
L 197.904132 324.028691 
L 205.238687 326.980686 
L 213.47777 330.340645 
L 222.73293 333.554125 
L 233.129473 336.818449 
L 244.80816 339.7311 
L 257.927109 342.963344 
L 272.663941 345.892337 
L 289.218178 348.677272 
L 307.81395 351.412574 
L 328.703027 353.995342 
L 352.168231 356.35597 
L 378.527257 358.37703 
L 408.136985 360.24132 
L 441.398304 361.812045 
L 478.761543 363.216921 
L 520.732567 364.39663 
L 567.879628 365.493413 
L 620.841054 366.414058 
L 680.333896 367.215461 
L 747.163636 367.974493 
" clip-path="url(#peef5a17032)" style="fill: none; stroke: #9467bd; stroke-width: 1.5; stroke-linecap: round"/>
   </g>
   <g id="line2d_21"/>
   <g id="line2d_22"/>
   <g id="line2d_23"/>
   <g id="line2d_24"/>
   <g id="line2d_25"/>
   <g id="patch_3">
    <path d="M 108 384.48 
L 108 51.84 
" style="fill: none; stroke: #ffffff; stroke-width: 0.8; stroke-linejoin: miter; stroke-linecap: square"/>
   </g>
   <g id="patch_4">
    <path d="M 777.6 384.48 
L 777.6 51.84 
" style="fill: none; stroke: #ffffff; stroke-width: 0.8; stroke-linejoin: miter; stroke-linecap: square"/>
   </g>
   <g id="patch_5">
    <path d="M 108 384.48 
L 777.6 384.48 
" style="fill: none; stroke: #ffffff; stroke-width: 0.8; stroke-linejoin: miter; stroke-linecap: square"/>
   </g>
   <g id="patch_6">
    <path d="M 108 51.84 
L 777.6 51.84 
" style="fill: none; stroke: #ffffff; stroke-width: 0.8; stroke-linejoin: miter; stroke-linecap: square"/>
   </g>
   <g id="text_18">
    <!-- quantization step and bpp -->
    <g style="fill: #262626" transform="translate(363.95625 45.84) scale(0.12 -0.12)">
     <defs>
      <path id="DejaVuSans-71" d="M 947 1747 
Q 947 1113 1208 752 
Q 1469 391 1925 391 
Q 2381 391 2643 752 
Q 2906 1113 2906 1747 
Q 2906 2381 2643 2742 
Q 2381 3103 1925 3103 
Q 1469 3103 1208 2742 
Q 947 2381 947 1747 
z
M 2906 525 
Q 2725 213 2448 61 
Q 2172 -91 1784 -91 
Q 1150 -91 751 415 
Q 353 922 353 1747 
Q 353 2572 751 3078 
Q 1150 3584 1784 3584 
Q 2172 3584 2448 3432 
Q 2725 3281 2906 2969 
L 2906 3500 
L 3481 3500 
L 3481 -1331 
L 2906 -1331 
L 2906 525 
z
" transform="scale(0.015625)"/>
      <path id="DejaVuSans-73" d="M 2834 3397 
L 2834 2853 
Q 2591 2978 2328 3040 
Q 2066 3103 1784 3103 
Q 1356 3103 1142 2972 
Q 928 2841 928 2578 
Q 928 2378 1081 2264 
Q 1234 2150 1697 2047 
L 1894 2003 
Q 2506 1872 2764 1633 
Q 3022 1394 3022 966 
Q 3022 478 2636 193 
Q 2250 -91 1575 -91 
Q 1294 -91 989 -36 
Q 684 19 347 128 
L 347 722 
Q 666 556 975 473 
Q 1284 391 1588 391 
Q 1994 391 2212 530 
Q 2431 669 2431 922 
Q 2431 1156 2273 1281 
Q 2116 1406 1581 1522 
L 1381 1569 
Q 847 1681 609 1914 
Q 372 2147 372 2553 
Q 372 3047 722 3315 
Q 1072 3584 1716 3584 
Q 2034 3584 2315 3537 
Q 2597 3491 2834 3397 
z
" transform="scale(0.015625)"/>
      <path id="DejaVuSans-64" d="M 2906 2969 
L 2906 4863 
L 3481 4863 
L 3481 0 
L 2906 0 
L 2906 525 
Q 2725 213 2448 61 
Q 2172 -91 1784 -91 
Q 1150 -91 751 415 
Q 353 922 353 1747 
Q 353 2572 751 3078 
Q 1150 3584 1784 3584 
Q 2172 3584 2448 3432 
Q 2725 3281 2906 2969 
z
M 947 1747 
Q 947 1113 1208 752 
Q 1469 391 1925 391 
Q 2381 391 2643 752 
Q 2906 1113 2906 1747 
Q 2906 2381 2643 2742 
Q 2381 3103 1925 3103 
Q 1469 3103 1208 2742 
Q 947 2381 947 1747 
z
" transform="scale(0.015625)"/>
     </defs>
     <use xlink:href="#DejaVuSans-71"/>
     <use xlink:href="#DejaVuSans-75" x="63.476562"/>
     <use xlink:href="#DejaVuSans-61" x="126.855469"/>
     <use xlink:href="#DejaVuSans-6e" x="188.134766"/>
     <use xlink:href="#DejaVuSans-74" x="251.513672"/>
     <use xlink:href="#DejaVuSans-69" x="290.722656"/>
     <use xlink:href="#DejaVuSans-7a" x="318.505859"/>
     <use xlink:href="#DejaVuSans-61" x="370.996094"/>
     <use xlink:href="#DejaVuSans-74" x="432.275391"/>
     <use xlink:href="#DejaVuSans-69" x="471.484375"/>
     <use xlink:href="#DejaVuSans-6f" x="499.267578"/>
     <use xlink:href="#DejaVuSans-6e" x="560.449219"/>
     <use xlink:href="#DejaVuSans-20" x="623.828125"/>
     <use xlink:href="#DejaVuSans-73" x="655.615234"/>
     <use xlink:href="#DejaVuSans-74" x="707.714844"/>
     <use xlink:href="#DejaVuSans-65" x="746.923828"/>
     <use xlink:href="#DejaVuSans-70" x="808.447266"/>
     <use xlink:href="#DejaVuSans-20" x="871.923828"/>
     <use xlink:href="#DejaVuSans-61" x="903.710938"/>
     <use xlink:href="#DejaVuSans-6e" x="964.990234"/>
     <use xlink:href="#DejaVuSans-64" x="1028.369141"/>
     <use xlink:href="#DejaVuSans-20" x="1091.845703"/>
     <use xlink:href="#DejaVuSans-62" x="1123.632812"/>
     <use xlink:href="#DejaVuSans-70" x="1187.109375"/>
     <use xlink:href="#DejaVuSans-70" x="1250.585938"/>
    </g>
   </g>
   <g id="legend_1">
    <g id="patch_7">
     <path d="M 713.370313 148.186875 
L 770.6 148.186875 
Q 772.6 148.186875 772.6 146.186875 
L 772.6 58.84 
Q 772.6 56.84 770.6 56.84 
L 713.370313 56.84 
Q 711.370313 56.84 711.370313 58.84 
L 711.370313 146.186875 
Q 711.370313 148.186875 713.370313 148.186875 
z
" style="fill: #eaeaf2; opacity: 0.8; stroke: #cccccc; stroke-linejoin: miter"/>
    </g>
    <g id="text_19">
     <!-- img_name -->
     <g style="fill: #262626" transform="translate(715.871875 68.438437) scale(0.1 -0.1)">
      <defs>
       <path id="DejaVuSans-6d" d="M 3328 2828 
Q 3544 3216 3844 3400 
Q 4144 3584 4550 3584 
Q 5097 3584 5394 3201 
Q 5691 2819 5691 2113 
L 5691 0 
L 5113 0 
L 5113 2094 
Q 5113 2597 4934 2840 
Q 4756 3084 4391 3084 
Q 3944 3084 3684 2787 
Q 3425 2491 3425 1978 
L 3425 0 
L 2847 0 
L 2847 2094 
Q 2847 2600 2669 2842 
Q 2491 3084 2119 3084 
Q 1678 3084 1418 2786 
Q 1159 2488 1159 1978 
L 1159 0 
L 581 0 
L 581 3500 
L 1159 3500 
L 1159 2956 
Q 1356 3278 1631 3431 
Q 1906 3584 2284 3584 
Q 2666 3584 2933 3390 
Q 3200 3197 3328 2828 
z
" transform="scale(0.015625)"/>
       <path id="DejaVuSans-67" d="M 2906 1791 
Q 2906 2416 2648 2759 
Q 2391 3103 1925 3103 
Q 1463 3103 1205 2759 
Q 947 2416 947 1791 
Q 947 1169 1205 825 
Q 1463 481 1925 481 
Q 2391 481 2648 825 
Q 2906 1169 2906 1791 
z
M 3481 434 
Q 3481 -459 3084 -895 
Q 2688 -1331 1869 -1331 
Q 1566 -1331 1297 -1286 
Q 1028 -1241 775 -1147 
L 775 -588 
Q 1028 -725 1275 -790 
Q 1522 -856 1778 -856 
Q 2344 -856 2625 -561 
Q 2906 -266 2906 331 
L 2906 616 
Q 2728 306 2450 153 
Q 2172 0 1784 0 
Q 1141 0 747 490 
Q 353 981 353 1791 
Q 353 2603 747 3093 
Q 1141 3584 1784 3584 
Q 2172 3584 2450 3431 
Q 2728 3278 2906 2969 
L 2906 3500 
L 3481 3500 
L 3481 434 
z
" transform="scale(0.015625)"/>
       <path id="DejaVuSans-5f" d="M 3263 -1063 
L 3263 -1509 
L -63 -1509 
L -63 -1063 
L 3263 -1063 
z
" transform="scale(0.015625)"/>
      </defs>
      <use xlink:href="#DejaVuSans-69"/>
      <use xlink:href="#DejaVuSans-6d" x="27.783203"/>
      <use xlink:href="#DejaVuSans-67" x="125.195312"/>
      <use xlink:href="#DejaVuSans-5f" x="188.671875"/>
      <use xlink:href="#DejaVuSans-6e" x="238.671875"/>
      <use xlink:href="#DejaVuSans-61" x="302.050781"/>
      <use xlink:href="#DejaVuSans-6d" x="363.330078"/>
      <use xlink:href="#DejaVuSans-65" x="460.742188"/>
     </g>
    </g>
    <g id="line2d_26">
     <path d="M 715.370313 79.894687 
L 725.370313 79.894687 
L 735.370313 79.894687 
" style="fill: none; stroke: #1f77b4; stroke-width: 1.5; stroke-linecap: round"/>
    </g>
    <g id="text_20">
     <!-- img1 -->
     <g style="fill: #262626" transform="translate(743.370313 83.394687) scale(0.1 -0.1)">
      <use xlink:href="#DejaVuSans-69"/>
      <use xlink:href="#DejaVuSans-6d" x="27.783203"/>
      <use xlink:href="#DejaVuSans-67" x="125.195312"/>
      <use xlink:href="#DejaVuSans-31" x="188.671875"/>
     </g>
    </g>
    <g id="line2d_27">
     <path d="M 715.370313 94.572812 
L 725.370313 94.572812 
L 735.370313 94.572812 
" style="fill: none; stroke: #ff7f0e; stroke-width: 1.5; stroke-linecap: round"/>
    </g>
    <g id="text_21">
     <!-- img2 -->
     <g style="fill: #262626" transform="translate(743.370313 98.072812) scale(0.1 -0.1)">
      <use xlink:href="#DejaVuSans-69"/>
      <use xlink:href="#DejaVuSans-6d" x="27.783203"/>
      <use xlink:href="#DejaVuSans-67" x="125.195312"/>
      <use xlink:href="#DejaVuSans-32" x="188.671875"/>
     </g>
    </g>
    <g id="line2d_28">
     <path d="M 715.370313 109.250937 
L 725.370313 109.250937 
L 735.370313 109.250937 
" style="fill: none; stroke: #2ca02c; stroke-width: 1.5; stroke-linecap: round"/>
    </g>
    <g id="text_22">
     <!-- img3 -->
     <g style="fill: #262626" transform="translate(743.370313 112.750937) scale(0.1 -0.1)">
      <defs>
       <path id="DejaVuSans-33" d="M 2597 2516 
Q 3050 2419 3304 2112 
Q 3559 1806 3559 1356 
Q 3559 666 3084 287 
Q 2609 -91 1734 -91 
Q 1441 -91 1130 -33 
Q 819 25 488 141 
L 488 750 
Q 750 597 1062 519 
Q 1375 441 1716 441 
Q 2309 441 2620 675 
Q 2931 909 2931 1356 
Q 2931 1769 2642 2001 
Q 2353 2234 1838 2234 
L 1294 2234 
L 1294 2753 
L 1863 2753 
Q 2328 2753 2575 2939 
Q 2822 3125 2822 3475 
Q 2822 3834 2567 4026 
Q 2313 4219 1838 4219 
Q 1578 4219 1281 4162 
Q 984 4106 628 3988 
L 628 4550 
Q 988 4650 1302 4700 
Q 1616 4750 1894 4750 
Q 2613 4750 3031 4423 
Q 3450 4097 3450 3541 
Q 3450 3153 3228 2886 
Q 3006 2619 2597 2516 
z
" transform="scale(0.015625)"/>
      </defs>
      <use xlink:href="#DejaVuSans-69"/>
      <use xlink:href="#DejaVuSans-6d" x="27.783203"/>
      <use xlink:href="#DejaVuSans-67" x="125.195312"/>
      <use xlink:href="#DejaVuSans-33" x="188.671875"/>
     </g>
    </g>
    <g id="line2d_29">
     <path d="M 715.370313 123.929062 
L 725.370313 123.929062 
L 735.370313 123.929062 
" style="fill: none; stroke: #d62728; stroke-width: 1.5; stroke-linecap: round"/>
    </g>
    <g id="text_23">
     <!-- img4 -->
     <g style="fill: #262626" transform="translate(743.370313 127.429062) scale(0.1 -0.1)">
      <use xlink:href="#DejaVuSans-69"/>
      <use xlink:href="#DejaVuSans-6d" x="27.783203"/>
      <use xlink:href="#DejaVuSans-67" x="125.195312"/>
      <use xlink:href="#DejaVuSans-34" x="188.671875"/>
     </g>
    </g>
    <g id="line2d_30">
     <path d="M 715.370313 138.607188 
L 725.370313 138.607188 
L 735.370313 138.607188 
" style="fill: none; stroke: #9467bd; stroke-width: 1.5; stroke-linecap: round"/>
    </g>
    <g id="text_24">
     <!-- img5 -->
     <g style="fill: #262626" transform="translate(743.370313 142.107188) scale(0.1 -0.1)">
      <defs>
       <path id="DejaVuSans-35" d="M 691 4666 
L 3169 4666 
L 3169 4134 
L 1269 4134 
L 1269 2991 
Q 1406 3038 1543 3061 
Q 1681 3084 1819 3084 
Q 2600 3084 3056 2656 
Q 3513 2228 3513 1497 
Q 3513 744 3044 326 
Q 2575 -91 1722 -91 
Q 1428 -91 1123 -41 
Q 819 9 494 109 
L 494 744 
Q 775 591 1075 516 
Q 1375 441 1709 441 
Q 2250 441 2565 725 
Q 2881 1009 2881 1497 
Q 2881 1984 2565 2268 
Q 2250 2553 1709 2553 
Q 1456 2553 1204 2497 
Q 953 2441 691 2322 
L 691 4666 
z
" transform="scale(0.015625)"/>
      </defs>
      <use xlink:href="#DejaVuSans-69"/>
      <use xlink:href="#DejaVuSans-6d" x="27.783203"/>
      <use xlink:href="#DejaVuSans-67" x="125.195312"/>
      <use xlink:href="#DejaVuSans-35" x="188.671875"/>
     </g>
    </g>
   </g>
  </g>
 </g>
 <defs>
  <clipPath id="peef5a17032">
   <rect x="108" y="51.84" width="669.6" height="332.64"/>
  </clipPath>
 </defs>
</svg>
