<?xml version="1.0" encoding="utf-8" standalone="no"?>
<!DOCTYPE svg PUBLIC "-//W3C//DTD SVG 1.1//EN"
  "http://www.w3.org/Graphics/SVG/1.1/DTD/svg11.dtd">
<svg xmlns:xlink="http://www.w3.org/1999/xlink" width="864pt" height="432pt" viewBox="0 0 864 432" xmlns="http://www.w3.org/2000/svg" version="1.1">
 <metadata>
  <rdf:RDF xmlns:dc="http://purl.org/dc/elements/1.1/" xmlns:cc="http://creativecommons.org/ns#" xmlns:rdf="http://www.w3.org/1999/02/22-rdf-syntax-ns#">
   <cc:Work>
    <dc:type rdf:resource="http://purl.org/dc/dcmitype/StillImage"/>
    <dc:date>2023-05-31T15:28:00.720426</dc:date>
    <dc:format>image/svg+xml</dc:format>
    <dc:creator>
     <cc:Agent>
      <dc:title>Matplotlib v3.7.0, https://matplotlib.org/</dc:title>
     </cc:Agent>
    </dc:creator>
   </cc:Work>
  </rdf:RDF>
 </metadata>
 <defs>
  <style type="text/css">*{stroke-linejoin: round; stroke-linecap: butt}</style>
 </defs>
 <g id="figure_1">
  <g id="patch_1">
   <path d="M 0 432 
L 864 432 
L 864 0 
L 0 0 
z
" style="fill: #ffffff"/>
  </g>
  <g id="axes_1">
   <g id="patch_2">
    <path d="M 108 384.48 
L 777.6 384.48 
L 777.6 51.84 
L 108 51.84 
z
" style="fill: #eaeaf2"/>
   </g>
   <g id="matplotlib.axis_1">
    <g id="xtick_1">
     <g id="line2d_1">
      <path d="M 138.430276 384.48 
L 138.430276 51.84 
" clip-path="url(#p167010a7c0)" style="fill: none; stroke: #ffffff; stroke-width: 0.8; stroke-linecap: round"/>
     </g>
     <g id="text_1">
      <!-- 0 -->
      <g style="fill: #262626" transform="translate(135.249026 399.078438) scale(0.1 -0.1)">
       <defs>
        <path id="DejaVuSans-30" d="M 2034 4250 
Q 1547 4250 1301 3770 
Q 1056 3291 1056 2328 
Q 1056 1369 1301 889 
Q 1547 409 2034 409 
Q 2525 409 2770 889 
Q 3016 1369 3016 2328 
Q 3016 3291 2770 3770 
Q 2525 4250 2034 4250 
z
M 2034 4750 
Q 2819 4750 3233 4129 
Q 3647 3509 3647 2328 
Q 3647 1150 3233 529 
Q 2819 -91 2034 -91 
Q 1250 -91 836 529 
Q 422 1150 422 2328 
Q 422 3509 836 4129 
Q 1250 4750 2034 4750 
z
" transform="scale(0.015625)"/>
       </defs>
       <use xlink:href="#DejaVuSans-30"/>
      </g>
     </g>
    </g>
    <g id="xtick_2">
     <g id="line2d_2">
      <path d="M 260.176948 384.48 
L 260.176948 51.84 
" clip-path="url(#p167010a7c0)" style="fill: none; stroke: #ffffff; stroke-width: 0.8; stroke-linecap: round"/>
     </g>
     <g id="text_2">
      <!-- 20 -->
      <g style="fill: #262626" transform="translate(253.814448 399.078438) scale(0.1 -0.1)">
       <defs>
        <path id="DejaVuSans-32" d="M 1228 531 
L 3431 531 
L 3431 0 
L 469 0 
L 469 531 
Q 828 903 1448 1529 
Q 2069 2156 2228 2338 
Q 2531 2678 2651 2914 
Q 2772 3150 2772 3378 
Q 2772 3750 2511 3984 
Q 2250 4219 1831 4219 
Q 1534 4219 1204 4116 
Q 875 4013 500 3803 
L 500 4441 
Q 881 4594 1212 4672 
Q 1544 4750 1819 4750 
Q 2544 4750 2975 4387 
Q 3406 4025 3406 3419 
Q 3406 3131 3298 2873 
Q 3191 2616 2906 2266 
Q 2828 2175 2409 1742 
Q 1991 1309 1228 531 
z
" transform="scale(0.015625)"/>
       </defs>
       <use xlink:href="#DejaVuSans-32"/>
       <use xlink:href="#DejaVuSans-30" x="63.623047"/>
      </g>
     </g>
    </g>
    <g id="xtick_3">
     <g id="line2d_3">
      <path d="M 381.92362 384.48 
L 381.92362 51.84 
" clip-path="url(#p167010a7c0)" style="fill: none; stroke: #ffffff; stroke-width: 0.8; stroke-linecap: round"/>
     </g>
     <g id="text_3">
      <!-- 40 -->
      <g style="fill: #262626" transform="translate(375.56112 399.078438) scale(0.1 -0.1)">
       <defs>
        <path id="DejaVuSans-34" d="M 2419 4116 
L 825 1625 
L 2419 1625 
L 2419 4116 
z
M 2253 4666 
L 3047 4666 
L 3047 1625 
L 3713 1625 
L 3713 1100 
L 3047 1100 
L 3047 0 
L 2419 0 
L 2419 1100 
L 313 1100 
L 313 1709 
L 2253 4666 
z
" transform="scale(0.015625)"/>
       </defs>
       <use xlink:href="#DejaVuSans-34"/>
       <use xlink:href="#DejaVuSans-30" x="63.623047"/>
      </g>
     </g>
    </g>
    <g id="xtick_4">
     <g id="line2d_4">
      <path d="M 503.670292 384.48 
L 503.670292 51.84 
" clip-path="url(#p167010a7c0)" style="fill: none; stroke: #ffffff; stroke-width: 0.8; stroke-linecap: round"/>
     </g>
     <g id="text_4">
      <!-- 60 -->
      <g style="fill: #262626" transform="translate(497.307792 399.078438) scale(0.1 -0.1)">
       <defs>
        <path id="DejaVuSans-36" d="M 2113 2584 
Q 1688 2584 1439 2293 
Q 1191 2003 1191 1497 
Q 1191 994 1439 701 
Q 1688 409 2113 409 
Q 2538 409 2786 701 
Q 3034 994 3034 1497 
Q 3034 2003 2786 2293 
Q 2538 2584 2113 2584 
z
M 3366 4563 
L 3366 3988 
Q 3128 4100 2886 4159 
Q 2644 4219 2406 4219 
Q 1781 4219 1451 3797 
Q 1122 3375 1075 2522 
Q 1259 2794 1537 2939 
Q 1816 3084 2150 3084 
Q 2853 3084 3261 2657 
Q 3669 2231 3669 1497 
Q 3669 778 3244 343 
Q 2819 -91 2113 -91 
Q 1303 -91 875 529 
Q 447 1150 447 2328 
Q 447 3434 972 4092 
Q 1497 4750 2381 4750 
Q 2619 4750 2861 4703 
Q 3103 4656 3366 4563 
z
" transform="scale(0.015625)"/>
       </defs>
       <use xlink:href="#DejaVuSans-36"/>
       <use xlink:href="#DejaVuSans-30" x="63.623047"/>
      </g>
     </g>
    </g>
    <g id="xtick_5">
     <g id="line2d_5">
      <path d="M 625.416964 384.48 
L 625.416964 51.84 
" clip-path="url(#p167010a7c0)" style="fill: none; stroke: #ffffff; stroke-width: 0.8; stroke-linecap: round"/>
     </g>
     <g id="text_5">
      <!-- 80 -->
      <g style="fill: #262626" transform="translate(619.054464 399.078438) scale(0.1 -0.1)">
       <defs>
        <path id="DejaVuSans-38" d="M 2034 2216 
Q 1584 2216 1326 1975 
Q 1069 1734 1069 1313 
Q 1069 891 1326 650 
Q 1584 409 2034 409 
Q 2484 409 2743 651 
Q 3003 894 3003 1313 
Q 3003 1734 2745 1975 
Q 2488 2216 2034 2216 
z
M 1403 2484 
Q 997 2584 770 2862 
Q 544 3141 544 3541 
Q 544 4100 942 4425 
Q 1341 4750 2034 4750 
Q 2731 4750 3128 4425 
Q 3525 4100 3525 3541 
Q 3525 3141 3298 2862 
Q 3072 2584 2669 2484 
Q 3125 2378 3379 2068 
Q 3634 1759 3634 1313 
Q 3634 634 3220 271 
Q 2806 -91 2034 -91 
Q 1263 -91 848 271 
Q 434 634 434 1313 
Q 434 1759 690 2068 
Q 947 2378 1403 2484 
z
M 1172 3481 
Q 1172 3119 1398 2916 
Q 1625 2713 2034 2713 
Q 2441 2713 2670 2916 
Q 2900 3119 2900 3481 
Q 2900 3844 2670 4047 
Q 2441 4250 2034 4250 
Q 1625 4250 1398 4047 
Q 1172 3844 1172 3481 
z
" transform="scale(0.015625)"/>
       </defs>
       <use xlink:href="#DejaVuSans-38"/>
       <use xlink:href="#DejaVuSans-30" x="63.623047"/>
      </g>
     </g>
    </g>
    <g id="xtick_6">
     <g id="line2d_6">
      <path d="M 747.163636 384.48 
L 747.163636 51.84 
" clip-path="url(#p167010a7c0)" style="fill: none; stroke: #ffffff; stroke-width: 0.8; stroke-linecap: round"/>
     </g>
     <g id="text_6">
      <!-- 100 -->
      <g style="fill: #262626" transform="translate(737.619886 399.078438) scale(0.1 -0.1)">
       <defs>
        <path id="DejaVuSans-31" d="M 794 531 
L 1825 531 
L 1825 4091 
L 703 3866 
L 703 4441 
L 1819 4666 
L 2450 4666 
L 2450 531 
L 3481 531 
L 3481 0 
L 794 0 
L 794 531 
z
" transform="scale(0.015625)"/>
       </defs>
       <use xlink:href="#DejaVuSans-31"/>
       <use xlink:href="#DejaVuSans-30" x="63.623047"/>
       <use xlink:href="#DejaVuSans-30" x="127.246094"/>
      </g>
     </g>
    </g>
    <g id="text_7">
     <!-- Q Quantization Step -->
     <g style="fill: #262626" transform="translate(392.348437 412.756563) scale(0.1 -0.1)">
      <defs>
       <path id="DejaVuSans-51" d="M 2522 4238 
Q 1834 4238 1429 3725 
Q 1025 3213 1025 2328 
Q 1025 1447 1429 934 
Q 1834 422 2522 422 
Q 3209 422 3611 934 
Q 4013 1447 4013 2328 
Q 4013 3213 3611 3725 
Q 3209 4238 2522 4238 
z
M 3406 84 
L 4238 -825 
L 3475 -825 
L 2784 -78 
Q 2681 -84 2626 -87 
Q 2572 -91 2522 -91 
Q 1538 -91 948 567 
Q 359 1225 359 2328 
Q 359 3434 948 4092 
Q 1538 4750 2522 4750 
Q 3503 4750 4090 4092 
Q 4678 3434 4678 2328 
Q 4678 1516 4351 937 
Q 4025 359 3406 84 
z
" transform="scale(0.015625)"/>
       <path id="DejaVuSans-20" transform="scale(0.015625)"/>
       <path id="DejaVuSans-75" d="M 544 1381 
L 544 3500 
L 1119 3500 
L 1119 1403 
Q 1119 906 1312 657 
Q 1506 409 1894 409 
Q 2359 409 2629 706 
Q 2900 1003 2900 1516 
L 2900 3500 
L 3475 3500 
L 3475 0 
L 2900 0 
L 2900 538 
Q 2691 219 2414 64 
Q 2138 -91 1772 -91 
Q 1169 -91 856 284 
Q 544 659 544 1381 
z
M 1991 3584 
L 1991 3584 
z
" transform="scale(0.015625)"/>
       <path id="DejaVuSans-61" d="M 2194 1759 
Q 1497 1759 1228 1600 
Q 959 1441 959 1056 
Q 959 750 1161 570 
Q 1363 391 1709 391 
Q 2188 391 2477 730 
Q 2766 1069 2766 1631 
L 2766 1759 
L 2194 1759 
z
M 3341 1997 
L 3341 0 
L 2766 0 
L 2766 531 
Q 2569 213 2275 61 
Q 1981 -91 1556 -91 
Q 1019 -91 701 211 
Q 384 513 384 1019 
Q 384 1609 779 1909 
Q 1175 2209 1959 2209 
L 2766 2209 
L 2766 2266 
Q 2766 2663 2505 2880 
Q 2244 3097 1772 3097 
Q 1472 3097 1187 3025 
Q 903 2953 641 2809 
L 641 3341 
Q 956 3463 1253 3523 
Q 1550 3584 1831 3584 
Q 2591 3584 2966 3190 
Q 3341 2797 3341 1997 
z
" transform="scale(0.015625)"/>
       <path id="DejaVuSans-6e" d="M 3513 2113 
L 3513 0 
L 2938 0 
L 2938 2094 
Q 2938 2591 2744 2837 
Q 2550 3084 2163 3084 
Q 1697 3084 1428 2787 
Q 1159 2491 1159 1978 
L 1159 0 
L 581 0 
L 581 3500 
L 1159 3500 
L 1159 2956 
Q 1366 3272 1645 3428 
Q 1925 3584 2291 3584 
Q 2894 3584 3203 3211 
Q 3513 2838 3513 2113 
z
" transform="scale(0.015625)"/>
       <path id="DejaVuSans-74" d="M 1172 4494 
L 1172 3500 
L 2356 3500 
L 2356 3053 
L 1172 3053 
L 1172 1153 
Q 1172 725 1289 603 
Q 1406 481 1766 481 
L 2356 481 
L 2356 0 
L 1766 0 
Q 1100 0 847 248 
Q 594 497 594 1153 
L 594 3053 
L 172 3053 
L 172 3500 
L 594 3500 
L 594 4494 
L 1172 4494 
z
" transform="scale(0.015625)"/>
       <path id="DejaVuSans-69" d="M 603 3500 
L 1178 3500 
L 1178 0 
L 603 0 
L 603 3500 
z
M 603 4863 
L 1178 4863 
L 1178 4134 
L 603 4134 
L 603 4863 
z
" transform="scale(0.015625)"/>
       <path id="DejaVuSans-7a" d="M 353 3500 
L 3084 3500 
L 3084 2975 
L 922 459 
L 3084 459 
L 3084 0 
L 275 0 
L 275 525 
L 2438 3041 
L 353 3041 
L 353 3500 
z
" transform="scale(0.015625)"/>
       <path id="DejaVuSans-6f" d="M 1959 3097 
Q 1497 3097 1228 2736 
Q 959 2375 959 1747 
Q 959 1119 1226 758 
Q 1494 397 1959 397 
Q 2419 397 2687 759 
Q 2956 1122 2956 1747 
Q 2956 2369 2687 2733 
Q 2419 3097 1959 3097 
z
M 1959 3584 
Q 2709 3584 3137 3096 
Q 3566 2609 3566 1747 
Q 3566 888 3137 398 
Q 2709 -91 1959 -91 
Q 1206 -91 779 398 
Q 353 888 353 1747 
Q 353 2609 779 3096 
Q 1206 3584 1959 3584 
z
" transform="scale(0.015625)"/>
       <path id="DejaVuSans-53" d="M 3425 4513 
L 3425 3897 
Q 3066 4069 2747 4153 
Q 2428 4238 2131 4238 
Q 1616 4238 1336 4038 
Q 1056 3838 1056 3469 
Q 1056 3159 1242 3001 
Q 1428 2844 1947 2747 
L 2328 2669 
Q 3034 2534 3370 2195 
Q 3706 1856 3706 1288 
Q 3706 609 3251 259 
Q 2797 -91 1919 -91 
Q 1588 -91 1214 -16 
Q 841 59 441 206 
L 441 856 
Q 825 641 1194 531 
Q 1563 422 1919 422 
Q 2459 422 2753 634 
Q 3047 847 3047 1241 
Q 3047 1584 2836 1778 
Q 2625 1972 2144 2069 
L 1759 2144 
Q 1053 2284 737 2584 
Q 422 2884 422 3419 
Q 422 4038 858 4394 
Q 1294 4750 2059 4750 
Q 2388 4750 2728 4690 
Q 3069 4631 3425 4513 
z
" transform="scale(0.015625)"/>
       <path id="DejaVuSans-65" d="M 3597 1894 
L 3597 1613 
L 953 1613 
Q 991 1019 1311 708 
Q 1631 397 2203 397 
Q 2534 397 2845 478 
Q 3156 559 3463 722 
L 3463 178 
Q 3153 47 2828 -22 
Q 2503 -91 2169 -91 
Q 1331 -91 842 396 
Q 353 884 353 1716 
Q 353 2575 817 3079 
Q 1281 3584 2069 3584 
Q 2775 3584 3186 3129 
Q 3597 2675 3597 1894 
z
M 3022 2063 
Q 3016 2534 2758 2815 
Q 2500 3097 2075 3097 
Q 1594 3097 1305 2825 
Q 1016 2553 972 2059 
L 3022 2063 
z
" transform="scale(0.015625)"/>
       <path id="DejaVuSans-70" d="M 1159 525 
L 1159 -1331 
L 581 -1331 
L 581 3500 
L 1159 3500 
L 1159 2969 
Q 1341 3281 1617 3432 
Q 1894 3584 2278 3584 
Q 2916 3584 3314 3078 
Q 3713 2572 3713 1747 
Q 3713 922 3314 415 
Q 2916 -91 2278 -91 
Q 1894 -91 1617 61 
Q 1341 213 1159 525 
z
M 3116 1747 
Q 3116 2381 2855 2742 
Q 2594 3103 2138 3103 
Q 1681 3103 1420 2742 
Q 1159 2381 1159 1747 
Q 1159 1113 1420 752 
Q 1681 391 2138 391 
Q 2594 391 2855 752 
Q 3116 1113 3116 1747 
z
" transform="scale(0.015625)"/>
      </defs>
      <use xlink:href="#DejaVuSans-51"/>
      <use xlink:href="#DejaVuSans-20" x="78.710938"/>
      <use xlink:href="#DejaVuSans-51" x="110.498047"/>
      <use xlink:href="#DejaVuSans-75" x="189.208984"/>
      <use xlink:href="#DejaVuSans-61" x="252.587891"/>
      <use xlink:href="#DejaVuSans-6e" x="313.867188"/>
      <use xlink:href="#DejaVuSans-74" x="377.246094"/>
      <use xlink:href="#DejaVuSans-69" x="416.455078"/>
      <use xlink:href="#DejaVuSans-7a" x="444.238281"/>
      <use xlink:href="#DejaVuSans-61" x="496.728516"/>
      <use xlink:href="#DejaVuSans-74" x="558.007812"/>
      <use xlink:href="#DejaVuSans-69" x="597.216797"/>
      <use xlink:href="#DejaVuSans-6f" x="625"/>
      <use xlink:href="#DejaVuSans-6e" x="686.181641"/>
      <use xlink:href="#DejaVuSans-20" x="749.560547"/>
      <use xlink:href="#DejaVuSans-53" x="781.347656"/>
      <use xlink:href="#DejaVuSans-74" x="844.824219"/>
      <use xlink:href="#DejaVuSans-65" x="884.033203"/>
      <use xlink:href="#DejaVuSans-70" x="945.556641"/>
     </g>
    </g>
   </g>
   <g id="matplotlib.axis_2">
    <g id="ytick_1">
     <g id="line2d_7">
      <path d="M 108 362.979174 
L 777.6 362.979174 
" clip-path="url(#p167010a7c0)" style="fill: none; stroke: #ffffff; stroke-width: 0.8; stroke-linecap: round"/>
     </g>
     <g id="text_8">
      <!-- 20 -->
      <g style="fill: #262626" transform="translate(88.275 366.778393) scale(0.1 -0.1)">
       <use xlink:href="#DejaVuSans-32"/>
       <use xlink:href="#DejaVuSans-30" x="63.623047"/>
      </g>
     </g>
    </g>
    <g id="ytick_2">
     <g id="line2d_8">
      <path d="M 108 300.351766 
L 777.6 300.351766 
" clip-path="url(#p167010a7c0)" style="fill: none; stroke: #ffffff; stroke-width: 0.8; stroke-linecap: round"/>
     </g>
     <g id="text_9">
      <!-- 40 -->
      <g style="fill: #262626" transform="translate(88.275 304.150985) scale(0.1 -0.1)">
       <use xlink:href="#DejaVuSans-34"/>
       <use xlink:href="#DejaVuSans-30" x="63.623047"/>
      </g>
     </g>
    </g>
    <g id="ytick_3">
     <g id="line2d_9">
      <path d="M 108 237.724358 
L 777.6 237.724358 
" clip-path="url(#p167010a7c0)" style="fill: none; stroke: #ffffff; stroke-width: 0.8; stroke-linecap: round"/>
     </g>
     <g id="text_10">
      <!-- 60 -->
      <g style="fill: #262626" transform="translate(88.275 241.523577) scale(0.1 -0.1)">
       <use xlink:href="#DejaVuSans-36"/>
       <use xlink:href="#DejaVuSans-30" x="63.623047"/>
      </g>
     </g>
    </g>
    <g id="ytick_4">
     <g id="line2d_10">
      <path d="M 108 175.09695 
L 777.6 175.09695 
" clip-path="url(#p167010a7c0)" style="fill: none; stroke: #ffffff; stroke-width: 0.8; stroke-linecap: round"/>
     </g>
     <g id="text_11">
      <!-- 80 -->
      <g style="fill: #262626" transform="translate(88.275 178.896169) scale(0.1 -0.1)">
       <use xlink:href="#DejaVuSans-38"/>
       <use xlink:href="#DejaVuSans-30" x="63.623047"/>
      </g>
     </g>
    </g>
    <g id="ytick_5">
     <g id="line2d_11">
      <path d="M 108 112.469542 
L 777.6 112.469542 
" clip-path="url(#p167010a7c0)" style="fill: none; stroke: #ffffff; stroke-width: 0.8; stroke-linecap: round"/>
     </g>
     <g id="text_12">
      <!-- 100 -->
      <g style="fill: #262626" transform="translate(81.9125 116.268761) scale(0.1 -0.1)">
       <use xlink:href="#DejaVuSans-31"/>
       <use xlink:href="#DejaVuSans-30" x="63.623047"/>
       <use xlink:href="#DejaVuSans-30" x="127.246094"/>
      </g>
     </g>
    </g>
    <g id="text_13">
     <!-- D psnr -->
     <g style="fill: #262626" transform="translate(75.832812 234.602187) rotate(-90) scale(0.1 -0.1)">
      <defs>
       <path id="DejaVuSans-44" d="M 1259 4147 
L 1259 519 
L 2022 519 
Q 2988 519 3436 956 
Q 3884 1394 3884 2338 
Q 3884 3275 3436 3711 
Q 2988 4147 2022 4147 
L 1259 4147 
z
M 628 4666 
L 1925 4666 
Q 3281 4666 3915 4102 
Q 4550 3538 4550 2338 
Q 4550 1131 3912 565 
Q 3275 0 1925 0 
L 628 0 
L 628 4666 
z
" transform="scale(0.015625)"/>
       <path id="DejaVuSans-73" d="M 2834 3397 
L 2834 2853 
Q 2591 2978 2328 3040 
Q 2066 3103 1784 3103 
Q 1356 3103 1142 2972 
Q 928 2841 928 2578 
Q 928 2378 1081 2264 
Q 1234 2150 1697 2047 
L 1894 2003 
Q 2506 1872 2764 1633 
Q 3022 1394 3022 966 
Q 3022 478 2636 193 
Q 2250 -91 1575 -91 
Q 1294 -91 989 -36 
Q 684 19 347 128 
L 347 722 
Q 666 556 975 473 
Q 1284 391 1588 391 
Q 1994 391 2212 530 
Q 2431 669 2431 922 
Q 2431 1156 2273 1281 
Q 2116 1406 1581 1522 
L 1381 1569 
Q 847 1681 609 1914 
Q 372 2147 372 2553 
Q 372 3047 722 3315 
Q 1072 3584 1716 3584 
Q 2034 3584 2315 3537 
Q 2597 3491 2834 3397 
z
" transform="scale(0.015625)"/>
       <path id="DejaVuSans-72" d="M 2631 2963 
Q 2534 3019 2420 3045 
Q 2306 3072 2169 3072 
Q 1681 3072 1420 2755 
Q 1159 2438 1159 1844 
L 1159 0 
L 581 0 
L 581 3500 
L 1159 3500 
L 1159 2956 
Q 1341 3275 1631 3429 
Q 1922 3584 2338 3584 
Q 2397 3584 2469 3576 
Q 2541 3569 2628 3553 
L 2631 2963 
z
" transform="scale(0.015625)"/>
      </defs>
      <use xlink:href="#DejaVuSans-44"/>
      <use xlink:href="#DejaVuSans-20" x="77.001953"/>
      <use xlink:href="#DejaVuSans-70" x="108.789062"/>
      <use xlink:href="#DejaVuSans-73" x="172.265625"/>
      <use xlink:href="#DejaVuSans-6e" x="224.365234"/>
      <use xlink:href="#DejaVuSans-72" x="287.744141"/>
     </g>
    </g>
   </g>
   <g id="PolyCollection_1"/>
   <g id="PolyCollection_2"/>
   <g id="PolyCollection_3"/>
   <g id="PolyCollection_4"/>
   <g id="PolyCollection_5"/>
   <g id="line2d_12">
    <path d="M 138.436364 66.96 
L 138.437114 69.786037 
L 138.437958 72.506038 
L 138.438905 75.884711 
L 138.439969 78.724142 
L 138.441164 82.030482 
L 138.442507 85.098644 
L 138.444016 88.446758 
L 138.44571 91.922715 
L 138.447613 94.931447 
L 138.449751 97.85891 
L 138.452153 101.285144 
L 138.454851 104.063285 
L 138.457882 107.009683 
L 138.461286 111.065678 
L 138.46511 113.527582 
L 138.469406 116.820345 
L 138.474232 119.8334 
L 138.479653 122.959259 
L 138.485742 126.106536 
L 138.492582 129.595042 
L 138.500266 133.019996 
L 138.508897 136.249959 
L 138.518593 138.869238 
L 138.529485 142.033365 
L 138.541719 145.423115 
L 138.555463 148.826479 
L 138.570902 151.316628 
L 138.588244 154.856342 
L 138.607725 158.308664 
L 138.629609 160.942053 
L 138.654192 164.195255 
L 138.681806 167.999434 
L 138.712825 170.684396 
L 138.74767 173.783004 
L 138.786813 176.941836 
L 138.830782 180.244997 
L 138.880174 183.648391 
L 138.935657 185.943686 
L 138.997983 189.46761 
L 139.067995 192.564623 
L 139.146641 196.261345 
L 139.234986 199.213392 
L 139.334226 202.387914 
L 139.445705 205.982121 
L 139.570931 208.472011 
L 139.711602 211.547081 
L 139.86962 214.945211 
L 140.047126 217.913626 
L 140.246522 221.279791 
L 140.470509 224.627314 
L 140.722118 227.456612 
L 141.004758 230.477928 
L 141.322253 233.60241 
L 141.678903 236.805974 
L 142.079537 240.490833 
L 142.529578 243.492178 
L 143.035121 246.817883 
L 143.603009 250.124544 
L 144.240931 252.873666 
L 144.957525 255.739816 
L 145.762491 259.77043 
L 146.666729 262.197879 
L 147.682482 265.479753 
L 148.823501 268.977313 
L 150.105236 271.815206 
L 151.545039 274.9043 
L 153.162404 278.121192 
L 154.97923 281.065838 
L 157.020114 284.273551 
L 159.312687 287.522251 
L 161.88799 290.953983 
L 164.78089 293.675722 
L 168.030554 296.790596 
L 171.68098 300.130841 
L 175.781591 302.443427 
L 180.387906 305.766078 
L 185.56229 308.439564 
L 191.3748 310.794603 
L 197.904132 313.885634 
L 205.238687 316.849538 
L 213.47777 319.536277 
L 222.73293 322.239925 
L 233.129473 324.514087 
L 244.80816 327.112756 
L 257.927109 329.377318 
L 272.663941 332.202878 
L 289.218178 334.714983 
L 307.81395 336.918005 
L 328.703027 339.894149 
L 352.168231 341.973801 
L 378.527257 345.526988 
L 408.136985 347.234685 
L 441.398304 349.621129 
L 478.761543 353.415251 
L 520.732567 355.383459 
L 567.879628 358.897751 
L 620.841054 361.781746 
L 680.333896 366.024168 
L 747.163636 368.084762 
" clip-path="url(#p167010a7c0)" style="fill: none; stroke: #1f77b4; stroke-width: 1.5; stroke-linecap: round"/>
   </g>
   <g id="line2d_13">
    <path d="M 138.436364 67.062655 
L 138.437114 69.837486 
L 138.437958 73.013828 
L 138.438905 75.715456 
L 138.439969 78.448676 
L 138.441164 82.236909 
L 138.442507 85.616932 
L 138.444016 88.626928 
L 138.44571 92.009219 
L 138.447613 94.698711 
L 138.449751 97.957511 
L 138.452153 100.912184 
L 138.454851 104.335217 
L 138.457882 107.001109 
L 138.461286 110.858069 
L 138.46511 113.39086 
L 138.469406 116.87357 
L 138.474232 120.267377 
L 138.479653 123.157846 
L 138.485742 126.592973 
L 138.492582 129.452501 
L 138.500266 133.165161 
L 138.508897 135.726573 
L 138.518593 138.764631 
L 138.529485 141.953379 
L 138.541719 145.381171 
L 138.555463 148.638558 
L 138.570902 151.589952 
L 138.588244 154.909824 
L 138.607725 158.104428 
L 138.629609 161.057852 
L 138.654192 164.561982 
L 138.681806 167.192233 
L 138.712825 170.753872 
L 138.74767 173.712249 
L 138.786813 177.04783 
L 138.830782 180.450279 
L 138.880174 183.420812 
L 138.935657 186.110006 
L 138.997983 189.691349 
L 139.067995 192.860162 
L 139.146641 195.952366 
L 139.234986 199.252544 
L 139.334226 202.641845 
L 139.445705 205.757141 
L 139.570931 208.369056 
L 139.711602 212.006796 
L 139.86962 214.804608 
L 140.047126 218.383139 
L 140.246522 221.784856 
L 140.470509 224.557578 
L 140.722118 227.806 
L 141.004758 230.775901 
L 141.322253 234.05337 
L 141.678903 237.599732 
L 142.079537 240.55705 
L 142.529578 243.402312 
L 143.035121 246.336066 
L 143.603009 249.671106 
L 144.240931 253.025267 
L 144.957525 256.284424 
L 145.762491 259.240363 
L 146.666729 262.421338 
L 147.682482 265.705875 
L 148.823501 268.874818 
L 150.105236 271.871772 
L 151.545039 275.473193 
L 153.162404 277.998591 
L 154.97923 280.700299 
L 157.020114 284.069742 
L 159.312687 287.432528 
L 161.88799 290.70401 
L 164.78089 293.430389 
L 168.030554 296.173902 
L 171.68098 299.595182 
L 175.781591 302.254864 
L 180.387906 304.269948 
L 185.56229 307.790211 
L 191.3748 310.612736 
L 197.904132 312.987406 
L 205.238687 315.87013 
L 213.47777 318.155033 
L 222.73293 321.355696 
L 233.129473 324.044143 
L 244.80816 326.212018 
L 257.927109 328.950903 
L 272.663941 332.146307 
L 289.218178 334.290131 
L 307.81395 337.207616 
L 328.703027 340.924193 
L 352.168231 343.069323 
L 378.527257 345.627406 
L 408.136985 348.568338 
L 441.398304 350.670223 
L 478.761543 354.800521 
L 520.732567 356.206557 
L 567.879628 357.501606 
L 620.841054 364.252575 
L 680.333896 366.574562 
L 747.163636 364.758845 
" clip-path="url(#p167010a7c0)" style="fill: none; stroke: #ff7f0e; stroke-width: 1.5; stroke-linecap: round"/>
   </g>
   <g id="line2d_14">
    <path d="M 138.436364 66.964351 
L 138.437114 69.653698 
L 138.437958 72.848533 
L 138.438905 75.675819 
L 138.439969 78.680252 
L 138.441164 82.623787 
L 138.442507 85.106769 
L 138.444016 88.361812 
L 138.44571 91.546296 
L 138.447613 95.037887 
L 138.449751 97.575614 
L 138.452153 101.209034 
L 138.454851 104.51588 
L 138.457882 107.595253 
L 138.461286 110.639125 
L 138.46511 113.900013 
L 138.469406 116.92087 
L 138.474232 120.206734 
L 138.479653 122.826785 
L 138.485742 126.571268 
L 138.492582 129.631866 
L 138.500266 132.892572 
L 138.508897 136.297483 
L 138.518593 139.108497 
L 138.529485 142.647162 
L 138.541719 145.932248 
L 138.555463 148.848759 
L 138.570902 151.97149 
L 138.588244 154.872938 
L 138.607725 158.168494 
L 138.629609 161.035127 
L 138.654192 164.770043 
L 138.681806 167.382671 
L 138.712825 170.74167 
L 138.74767 173.787167 
L 138.786813 177.006196 
L 138.830782 179.652763 
L 138.880174 183.434347 
L 138.935657 185.724476 
L 138.997983 189.554841 
L 139.067995 192.688836 
L 139.146641 196.210571 
L 139.234986 199.316494 
L 139.334226 202.093917 
L 139.445705 205.940058 
L 139.570931 208.098614 
L 139.711602 211.969469 
L 139.86962 214.82024 
L 140.047126 218.286577 
L 140.246522 221.538462 
L 140.470509 224.702064 
L 140.722118 227.776685 
L 141.004758 231.042888 
L 141.322253 234.349108 
L 141.678903 237.175051 
L 142.079537 239.948851 
L 142.529578 243.51294 
L 143.035121 246.595158 
L 143.603009 250.05819 
L 144.240931 253.017229 
L 144.957525 256.297629 
L 145.762491 259.576229 
L 146.666729 262.387128 
L 147.682482 265.745866 
L 148.823501 269.03911 
L 150.105236 271.746809 
L 151.545039 274.863986 
L 153.162404 278.522746 
L 154.97923 281.118913 
L 157.020114 284.026183 
L 159.312687 287.86019 
L 161.88799 290.155968 
L 164.78089 293.566812 
L 168.030554 296.278804 
L 171.68098 299.55504 
L 175.781591 302.473946 
L 180.387906 305.385616 
L 185.56229 308.117403 
L 191.3748 310.604273 
L 197.904132 314.029875 
L 205.238687 316.521422 
L 213.47777 319.279846 
L 222.73293 321.643551 
L 233.129473 324.784958 
L 244.80816 327.441335 
L 257.927109 330.189638 
L 272.663941 332.952119 
L 289.218178 336.187444 
L 307.81395 338.238548 
L 328.703027 340.974464 
L 352.168231 343.732493 
L 378.527257 346.679202 
L 408.136985 349.087248 
L 441.398304 351.687122 
L 478.761543 354.840439 
L 520.732567 358.000325 
L 567.879628 359.571504 
L 620.841054 362.745334 
L 680.333896 366.931704 
L 747.163636 368.795542 
" clip-path="url(#p167010a7c0)" style="fill: none; stroke: #2ca02c; stroke-width: 1.5; stroke-linecap: round"/>
   </g>
   <g id="line2d_15">
    <path d="M 138.436364 67.142032 
L 138.437114 69.508975 
L 138.437958 72.647044 
L 138.438905 75.58109 
L 138.439969 78.66388 
L 138.441164 82.292209 
L 138.442507 85.147141 
L 138.444016 88.83931 
L 138.44571 91.730836 
L 138.447613 95.028448 
L 138.449751 97.922597 
L 138.452153 101.037607 
L 138.454851 104.262274 
L 138.457882 107.413375 
L 138.461286 110.746774 
L 138.46511 113.812902 
L 138.469406 117.017625 
L 138.474232 120.338671 
L 138.479653 123.184914 
L 138.485742 126.645765 
L 138.492582 129.384231 
L 138.500266 132.599462 
L 138.508897 136.040577 
L 138.518593 139.022472 
L 138.529485 142.553151 
L 138.541719 145.711246 
L 138.555463 148.675608 
L 138.570902 151.75209 
L 138.588244 155.271469 
L 138.607725 158.068783 
L 138.629609 161.136667 
L 138.654192 165.09498 
L 138.681806 167.476404 
L 138.712825 170.745979 
L 138.74767 173.60551 
L 138.786813 176.632389 
L 138.830782 180.080322 
L 138.880174 182.931953 
L 138.935657 186.737118 
L 138.997983 189.574901 
L 139.067995 192.625277 
L 139.146641 196.744029 
L 139.234986 199.343723 
L 139.334226 202.313591 
L 139.445705 205.962132 
L 139.570931 208.670388 
L 139.711602 211.76074 
L 139.86962 215.074093 
L 140.047126 217.919102 
L 140.246522 221.300254 
L 140.470509 224.437087 
L 140.722118 227.508075 
L 141.004758 230.778133 
L 141.322253 233.479563 
L 141.678903 237.635793 
L 142.079537 240.351946 
L 142.529578 242.884607 
L 143.035121 246.602902 
L 143.603009 249.810298 
L 144.240931 252.754406 
L 144.957525 255.91383 
L 145.762491 259.298531 
L 146.666729 262.011267 
L 147.682482 266.141619 
L 148.823501 268.689756 
L 150.105236 272.214613 
L 151.545039 275.181273 
L 153.162404 278.367791 
L 154.97923 281.390136 
L 157.020114 284.795177 
L 159.312687 287.458813 
L 161.88799 290.925894 
L 164.78089 293.840481 
L 168.030554 297.443379 
L 171.68098 299.507324 
L 175.781591 303.04837 
L 180.387906 306.328353 
L 185.56229 308.9127 
L 191.3748 311.915027 
L 197.904132 314.613375 
L 205.238687 317.841401 
L 213.47777 320.591509 
L 222.73293 323.299958 
L 233.129473 326.185182 
L 244.80816 329.33961 
L 257.927109 332.005397 
L 272.663941 334.919283 
L 289.218178 336.887313 
L 307.81395 339.516969 
L 328.703027 342.540039 
L 352.168231 344.58716 
L 378.527257 348.080881 
L 408.136985 350.191851 
L 441.398304 353.120968 
L 478.761543 355.494223 
L 520.732567 358.239809 
L 567.879628 360.708454 
L 620.841054 363.274775 
L 680.333896 365.928025 
L 747.163636 368.41453 
" clip-path="url(#p167010a7c0)" style="fill: none; stroke: #d62728; stroke-width: 1.5; stroke-linecap: round"/>
   </g>
   <g id="line2d_16">
    <path d="M 138.436364 67.291117 
L 138.437114 69.463822 
L 138.437958 72.592752 
L 138.438905 75.850882 
L 138.439969 78.40217 
L 138.441164 82.120379 
L 138.442507 85.631878 
L 138.444016 88.400347 
L 138.44571 91.79996 
L 138.447613 94.295196 
L 138.449751 98.123806 
L 138.452153 100.770836 
L 138.454851 104.296232 
L 138.457882 107.17099 
L 138.461286 110.647338 
L 138.46511 113.949599 
L 138.469406 116.785746 
L 138.474232 120.177765 
L 138.479653 122.83489 
L 138.485742 125.910851 
L 138.492582 129.139689 
L 138.500266 133.071433 
L 138.508897 135.997588 
L 138.518593 139.063215 
L 138.529485 142.096668 
L 138.541719 145.729908 
L 138.555463 148.432239 
L 138.570902 151.799579 
L 138.588244 154.742908 
L 138.607725 157.673855 
L 138.629609 160.930497 
L 138.654192 164.933482 
L 138.681806 167.566844 
L 138.712825 170.642903 
L 138.74767 173.787847 
L 138.786813 177.176969 
L 138.830782 180.165102 
L 138.880174 183.352972 
L 138.935657 186.525867 
L 138.997983 189.976075 
L 139.067995 193.31995 
L 139.146641 195.572779 
L 139.234986 199.032758 
L 139.334226 202.808213 
L 139.445705 205.744887 
L 139.570931 208.288253 
L 139.711602 211.956161 
L 139.86962 214.725831 
L 140.047126 217.836435 
L 140.246522 221.069151 
L 140.470509 224.879434 
L 140.722118 227.837698 
L 141.004758 230.864761 
L 141.322253 234.031474 
L 141.678903 237.594896 
L 142.079537 240.339085 
L 142.529578 243.43499 
L 143.035121 246.62013 
L 143.603009 249.858419 
L 144.240931 252.622699 
L 144.957525 255.677068 
L 145.762491 259.016834 
L 146.666729 262.049771 
L 147.682482 265.478663 
L 148.823501 268.364605 
L 150.105236 271.790444 
L 151.545039 275.011006 
L 153.162404 278.25597 
L 154.97923 281.509425 
L 157.020114 284.311915 
L 159.312687 287.887241 
L 161.88799 290.68811 
L 164.78089 293.855913 
L 168.030554 297.530139 
L 171.68098 300.163704 
L 175.781591 303.502783 
L 180.387906 305.9679 
L 185.56229 309.327967 
L 191.3748 312.321121 
L 197.904132 315.430101 
L 205.238687 318.492982 
L 213.47777 320.847314 
L 222.73293 324.438875 
L 233.129473 326.832142 
L 244.80816 330.036483 
L 257.927109 332.162779 
L 272.663941 335.588237 
L 289.218178 337.910877 
L 307.81395 340.70773 
L 328.703027 343.607747 
L 352.168231 346.606201 
L 378.527257 349.162505 
L 408.136985 350.973904 
L 441.398304 353.366997 
L 478.761543 356.499367 
L 520.732567 358.730709 
L 567.879628 362.848819 
L 620.841054 365.135363 
L 680.333896 366.741147 
L 747.163636 369.36 
" clip-path="url(#p167010a7c0)" style="fill: none; stroke: #9467bd; stroke-width: 1.5; stroke-linecap: round"/>
   </g>
   <g id="line2d_17"/>
   <g id="line2d_18"/>
   <g id="line2d_19"/>
   <g id="line2d_20"/>
   <g id="line2d_21"/>
   <g id="patch_3">
    <path d="M 108 384.48 
L 108 51.84 
" style="fill: none; stroke: #ffffff; stroke-width: 0.8; stroke-linejoin: miter; stroke-linecap: square"/>
   </g>
   <g id="patch_4">
    <path d="M 777.6 384.48 
L 777.6 51.84 
" style="fill: none; stroke: #ffffff; stroke-width: 0.8; stroke-linejoin: miter; stroke-linecap: square"/>
   </g>
   <g id="patch_5">
    <path d="M 108 384.48 
L 777.6 384.48 
" style="fill: none; stroke: #ffffff; stroke-width: 0.8; stroke-linejoin: miter; stroke-linecap: square"/>
   </g>
   <g id="patch_6">
    <path d="M 108 51.84 
L 777.6 51.84 
" style="fill: none; stroke: #ffffff; stroke-width: 0.8; stroke-linejoin: miter; stroke-linecap: square"/>
   </g>
   <g id="text_14">
    <!-- quantization step and psnr -->
    <g style="fill: #262626" transform="translate(362.179688 45.84) scale(0.12 -0.12)">
     <defs>
      <path id="DejaVuSans-71" d="M 947 1747 
Q 947 1113 1208 752 
Q 1469 391 1925 391 
Q 2381 391 2643 752 
Q 2906 1113 2906 1747 
Q 2906 2381 2643 2742 
Q 2381 3103 1925 3103 
Q 1469 3103 1208 2742 
Q 947 2381 947 1747 
z
M 2906 525 
Q 2725 213 2448 61 
Q 2172 -91 1784 -91 
Q 1150 -91 751 415 
Q 353 922 353 1747 
Q 353 2572 751 3078 
Q 1150 3584 1784 3584 
Q 2172 3584 2448 3432 
Q 2725 3281 2906 2969 
L 2906 3500 
L 3481 3500 
L 3481 -1331 
L 2906 -1331 
L 2906 525 
z
" transform="scale(0.015625)"/>
      <path id="DejaVuSans-64" d="M 2906 2969 
L 2906 4863 
L 3481 4863 
L 3481 0 
L 2906 0 
L 2906 525 
Q 2725 213 2448 61 
Q 2172 -91 1784 -91 
Q 1150 -91 751 415 
Q 353 922 353 1747 
Q 353 2572 751 3078 
Q 1150 3584 1784 3584 
Q 2172 3584 2448 3432 
Q 2725 3281 2906 2969 
z
M 947 1747 
Q 947 1113 1208 752 
Q 1469 391 1925 391 
Q 2381 391 2643 752 
Q 2906 1113 2906 1747 
Q 2906 2381 2643 2742 
Q 2381 3103 1925 3103 
Q 1469 3103 1208 2742 
Q 947 2381 947 1747 
z
" transform="scale(0.015625)"/>
     </defs>
     <use xlink:href="#DejaVuSans-71"/>
     <use xlink:href="#DejaVuSans-75" x="63.476562"/>
     <use xlink:href="#DejaVuSans-61" x="126.855469"/>
     <use xlink:href="#DejaVuSans-6e" x="188.134766"/>
     <use xlink:href="#DejaVuSans-74" x="251.513672"/>
     <use xlink:href="#DejaVuSans-69" x="290.722656"/>
     <use xlink:href="#DejaVuSans-7a" x="318.505859"/>
     <use xlink:href="#DejaVuSans-61" x="370.996094"/>
     <use xlink:href="#DejaVuSans-74" x="432.275391"/>
     <use xlink:href="#DejaVuSans-69" x="471.484375"/>
     <use xlink:href="#DejaVuSans-6f" x="499.267578"/>
     <use xlink:href="#DejaVuSans-6e" x="560.449219"/>
     <use xlink:href="#DejaVuSans-20" x="623.828125"/>
     <use xlink:href="#DejaVuSans-73" x="655.615234"/>
     <use xlink:href="#DejaVuSans-74" x="707.714844"/>
     <use xlink:href="#DejaVuSans-65" x="746.923828"/>
     <use xlink:href="#DejaVuSans-70" x="808.447266"/>
     <use xlink:href="#DejaVuSans-20" x="871.923828"/>
     <use xlink:href="#DejaVuSans-61" x="903.710938"/>
     <use xlink:href="#DejaVuSans-6e" x="964.990234"/>
     <use xlink:href="#DejaVuSans-64" x="1028.369141"/>
     <use xlink:href="#DejaVuSans-20" x="1091.845703"/>
     <use xlink:href="#DejaVuSans-70" x="1123.632812"/>
     <use xlink:href="#DejaVuSans-73" x="1187.109375"/>
     <use xlink:href="#DejaVuSans-6e" x="1239.208984"/>
     <use xlink:href="#DejaVuSans-72" x="1302.587891"/>
    </g>
   </g>
   <g id="legend_1">
    <g id="patch_7">
     <path d="M 713.370313 148.186875 
L 770.6 148.186875 
Q 772.6 148.186875 772.6 146.186875 
L 772.6 58.84 
Q 772.6 56.84 770.6 56.84 
L 713.370313 56.84 
Q 711.370313 56.84 711.370313 58.84 
L 711.370313 146.186875 
Q 711.370313 148.186875 713.370313 148.186875 
z
" style="fill: #eaeaf2; opacity: 0.8; stroke: #cccccc; stroke-linejoin: miter"/>
    </g>
    <g id="text_15">
     <!-- img_name -->
     <g style="fill: #262626" transform="translate(715.871875 68.438437) scale(0.1 -0.1)">
      <defs>
       <path id="DejaVuSans-6d" d="M 3328 2828 
Q 3544 3216 3844 3400 
Q 4144 3584 4550 3584 
Q 5097 3584 5394 3201 
Q 5691 2819 5691 2113 
L 5691 0 
L 5113 0 
L 5113 2094 
Q 5113 2597 4934 2840 
Q 4756 3084 4391 3084 
Q 3944 3084 3684 2787 
Q 3425 2491 3425 1978 
L 3425 0 
L 2847 0 
L 2847 2094 
Q 2847 2600 2669 2842 
Q 2491 3084 2119 3084 
Q 1678 3084 1418 2786 
Q 1159 2488 1159 1978 
L 1159 0 
L 581 0 
L 581 3500 
L 1159 3500 
L 1159 2956 
Q 1356 3278 1631 3431 
Q 1906 3584 2284 3584 
Q 2666 3584 2933 3390 
Q 3200 3197 3328 2828 
z
" transform="scale(0.015625)"/>
       <path id="DejaVuSans-67" d="M 2906 1791 
Q 2906 2416 2648 2759 
Q 2391 3103 1925 3103 
Q 1463 3103 1205 2759 
Q 947 2416 947 1791 
Q 947 1169 1205 825 
Q 1463 481 1925 481 
Q 2391 481 2648 825 
Q 2906 1169 2906 1791 
z
M 3481 434 
Q 3481 -459 3084 -895 
Q 2688 -1331 1869 -1331 
Q 1566 -1331 1297 -1286 
Q 1028 -1241 775 -1147 
L 775 -588 
Q 1028 -725 1275 -790 
Q 1522 -856 1778 -856 
Q 2344 -856 2625 -561 
Q 2906 -266 2906 331 
L 2906 616 
Q 2728 306 2450 153 
Q 2172 0 1784 0 
Q 1141 0 747 490 
Q 353 981 353 1791 
Q 353 2603 747 3093 
Q 1141 3584 1784 3584 
Q 2172 3584 2450 3431 
Q 2728 3278 2906 2969 
L 2906 3500 
L 3481 3500 
L 3481 434 
z
" transform="scale(0.015625)"/>
       <path id="DejaVuSans-5f" d="M 3263 -1063 
L 3263 -1509 
L -63 -1509 
L -63 -1063 
L 3263 -1063 
z
" transform="scale(0.015625)"/>
      </defs>
      <use xlink:href="#DejaVuSans-69"/>
      <use xlink:href="#DejaVuSans-6d" x="27.783203"/>
      <use xlink:href="#DejaVuSans-67" x="125.195312"/>
      <use xlink:href="#DejaVuSans-5f" x="188.671875"/>
      <use xlink:href="#DejaVuSans-6e" x="238.671875"/>
      <use xlink:href="#DejaVuSans-61" x="302.050781"/>
      <use xlink:href="#DejaVuSans-6d" x="363.330078"/>
      <use xlink:href="#DejaVuSans-65" x="460.742188"/>
     </g>
    </g>
    <g id="line2d_22">
     <path d="M 715.370313 79.894687 
L 725.370313 79.894687 
L 735.370313 79.894687 
" style="fill: none; stroke: #1f77b4; stroke-width: 1.5; stroke-linecap: round"/>
    </g>
    <g id="text_16">
     <!-- img1 -->
     <g style="fill: #262626" transform="translate(743.370313 83.394687) scale(0.1 -0.1)">
      <use xlink:href="#DejaVuSans-69"/>
      <use xlink:href="#DejaVuSans-6d" x="27.783203"/>
      <use xlink:href="#DejaVuSans-67" x="125.195312"/>
      <use xlink:href="#DejaVuSans-31" x="188.671875"/>
     </g>
    </g>
    <g id="line2d_23">
     <path d="M 715.370313 94.572812 
L 725.370313 94.572812 
L 735.370313 94.572812 
" style="fill: none; stroke: #ff7f0e; stroke-width: 1.5; stroke-linecap: round"/>
    </g>
    <g id="text_17">
     <!-- img2 -->
     <g style="fill: #262626" transform="translate(743.370313 98.072812) scale(0.1 -0.1)">
      <use xlink:href="#DejaVuSans-69"/>
      <use xlink:href="#DejaVuSans-6d" x="27.783203"/>
      <use xlink:href="#DejaVuSans-67" x="125.195312"/>
      <use xlink:href="#DejaVuSans-32" x="188.671875"/>
     </g>
    </g>
    <g id="line2d_24">
     <path d="M 715.370313 109.250937 
L 725.370313 109.250937 
L 735.370313 109.250937 
" style="fill: none; stroke: #2ca02c; stroke-width: 1.5; stroke-linecap: round"/>
    </g>
    <g id="text_18">
     <!-- img3 -->
     <g style="fill: #262626" transform="translate(743.370313 112.750937) scale(0.1 -0.1)">
      <defs>
       <path id="DejaVuSans-33" d="M 2597 2516 
Q 3050 2419 3304 2112 
Q 3559 1806 3559 1356 
Q 3559 666 3084 287 
Q 2609 -91 1734 -91 
Q 1441 -91 1130 -33 
Q 819 25 488 141 
L 488 750 
Q 750 597 1062 519 
Q 1375 441 1716 441 
Q 2309 441 2620 675 
Q 2931 909 2931 1356 
Q 2931 1769 2642 2001 
Q 2353 2234 1838 2234 
L 1294 2234 
L 1294 2753 
L 1863 2753 
Q 2328 2753 2575 2939 
Q 2822 3125 2822 3475 
Q 2822 3834 2567 4026 
Q 2313 4219 1838 4219 
Q 1578 4219 1281 4162 
Q 984 4106 628 3988 
L 628 4550 
Q 988 4650 1302 4700 
Q 1616 4750 1894 4750 
Q 2613 4750 3031 4423 
Q 3450 4097 3450 3541 
Q 3450 3153 3228 2886 
Q 3006 2619 2597 2516 
z
" transform="scale(0.015625)"/>
      </defs>
      <use xlink:href="#DejaVuSans-69"/>
      <use xlink:href="#DejaVuSans-6d" x="27.783203"/>
      <use xlink:href="#DejaVuSans-67" x="125.195312"/>
      <use xlink:href="#DejaVuSans-33" x="188.671875"/>
     </g>
    </g>
    <g id="line2d_25">
     <path d="M 715.370313 123.929062 
L 725.370313 123.929062 
L 735.370313 123.929062 
" style="fill: none; stroke: #d62728; stroke-width: 1.5; stroke-linecap: round"/>
    </g>
    <g id="text_19">
     <!-- img4 -->
     <g style="fill: #262626" transform="translate(743.370313 127.429062) scale(0.1 -0.1)">
      <use xlink:href="#DejaVuSans-69"/>
      <use xlink:href="#DejaVuSans-6d" x="27.783203"/>
      <use xlink:href="#DejaVuSans-67" x="125.195312"/>
      <use xlink:href="#DejaVuSans-34" x="188.671875"/>
     </g>
    </g>
    <g id="line2d_26">
     <path d="M 715.370313 138.607188 
L 725.370313 138.607188 
L 735.370313 138.607188 
" style="fill: none; stroke: #9467bd; stroke-width: 1.5; stroke-linecap: round"/>
    </g>
    <g id="text_20">
     <!-- img5 -->
     <g style="fill: #262626" transform="translate(743.370313 142.107188) scale(0.1 -0.1)">
      <defs>
       <path id="DejaVuSans-35" d="M 691 4666 
L 3169 4666 
L 3169 4134 
L 1269 4134 
L 1269 2991 
Q 1406 3038 1543 3061 
Q 1681 3084 1819 3084 
Q 2600 3084 3056 2656 
Q 3513 2228 3513 1497 
Q 3513 744 3044 326 
Q 2575 -91 1722 -91 
Q 1428 -91 1123 -41 
Q 819 9 494 109 
L 494 744 
Q 775 591 1075 516 
Q 1375 441 1709 441 
Q 2250 441 2565 725 
Q 2881 1009 2881 1497 
Q 2881 1984 2565 2268 
Q 2250 2553 1709 2553 
Q 1456 2553 1204 2497 
Q 953 2441 691 2322 
L 691 4666 
z
" transform="scale(0.015625)"/>
      </defs>
      <use xlink:href="#DejaVuSans-69"/>
      <use xlink:href="#DejaVuSans-6d" x="27.783203"/>
      <use xlink:href="#DejaVuSans-67" x="125.195312"/>
      <use xlink:href="#DejaVuSans-35" x="188.671875"/>
     </g>
    </g>
   </g>
  </g>
 </g>
 <defs>
  <clipPath id="p167010a7c0">
   <rect x="108" y="51.84" width="669.6" height="332.64"/>
  </clipPath>
 </defs>
</svg>
